<svg width="24" height="24" viewBox="0 0 24 24" fill="none" xmlns="http://www.w3.org/2000/svg">
<path fill-rule="evenodd" clip-rule="evenodd" d="M9.52405 1.99594C10.36 1.52688 11.1342 1.25 12.0003 1.25C12.8664 1.25 13.6406 1.52688 14.4765 1.99594C15.2864 2.45043 16.2144 3.12145 17.3814 3.96523L18.8905 5.05633C19.827 5.73347 20.575 6.2743 21.1392 6.77487C21.7217 7.29173 22.1576 7.807 22.434 8.45513C22.711 9.10469 22.778 9.77045 22.7409 10.5381C22.705 11.2789 22.5677 12.1726 22.3964 13.2871L22.0811 15.3387C21.8377 16.9225 21.6439 18.1837 21.3592 19.1662C21.0648 20.1821 20.6501 20.9887 19.9089 21.6052C19.1707 22.2192 18.2914 22.4926 17.2172 22.6231C16.8516 22.6675 16.4525 22.6964 16.0169 22.7151L16.2482 18.554C16.4193 16.0923 14.4683 14 11.9995 14C9.53063 14 7.5797 16.0923 7.75078 18.554L7.98208 22.7151C7.54703 22.6963 7.14848 22.6675 6.7833 22.6231C5.70915 22.4926 4.82982 22.2192 4.09165 21.6052C3.3504 20.9887 2.93569 20.1821 2.64129 19.1662C2.35659 18.1836 2.1628 16.9225 1.91943 15.3387L1.60417 13.2872C1.43288 12.1727 1.29552 11.2789 1.25966 10.5381C1.22249 9.77045 1.2895 9.10469 1.56654 8.45513C1.84298 7.807 2.27879 7.29173 2.86134 6.77487C3.42553 6.27429 4.17354 5.73346 5.11008 5.05632L6.61911 3.96524C7.78611 3.12145 8.71414 2.45043 9.52405 1.99594ZM9.98707 22.7494C10.252 22.75 10.5266 22.75 10.8114 22.75H13.1892C13.4734 22.75 13.7475 22.75 14.0119 22.7494L14.2521 18.4277L14.2527 18.4199C14.3461 17.1122 13.3104 16 11.9995 16C10.6886 16 9.65288 17.1122 9.74628 18.4199L9.74685 18.4277L9.98707 22.7494Z" fill="white"/>
</svg>
