<svg width="100" height="100" viewBox="0 0 100 100" fill="none" xmlns="http://www.w3.org/2000/svg">
<path d="M56.8556 45.2068C52.6261 40.9773 46.9937 38.6481 40.9958 38.6481C40.7282 38.6481 40.4618 38.6543 40.1958 38.6635V22.2471C40.1958 21.6059 40.4505 20.9909 40.9038 20.5375L53.1356 8.30566C53.5891 7.85233 54.204 7.59765 54.8452 7.59766H91.6409C91.773 7.59763 91.9039 7.62364 92.0259 7.67419C92.148 7.72474 92.2589 7.79884 92.3524 7.89227C92.4458 7.98569 92.5199 8.09661 92.5704 8.21868C92.621 8.34075 92.647 8.47159 92.647 8.60371V74.4156C92.647 74.5478 92.621 74.6786 92.5704 74.8007C92.5199 74.9227 92.4458 75.0336 92.3524 75.1271C92.2589 75.2205 92.148 75.2946 92.0259 75.3452C91.9039 75.3957 91.773 75.4217 91.6409 75.4217H58.2282C65.5722 66.6188 65.1155 53.4668 56.8556 45.2068Z" fill="#FED402"/>
<path d="M83.3362 74.4156V8.60371C83.3363 8.47159 83.3103 8.34075 83.2597 8.21868C83.2092 8.09661 83.135 7.98569 83.0416 7.89227C82.9482 7.79884 82.8373 7.72474 82.7152 7.67419C82.5931 7.62364 82.4623 7.59763 82.3302 7.59766H91.6409C91.773 7.59763 91.9039 7.62364 92.0259 7.67419C92.148 7.72474 92.2589 7.79884 92.3524 7.89227C92.4458 7.98569 92.5199 8.09661 92.5704 8.21868C92.621 8.34075 92.647 8.47159 92.647 8.60371V74.4156C92.647 74.5478 92.621 74.6786 92.5704 74.8007C92.5199 74.9227 92.4458 75.0336 92.3524 75.1271C92.2589 75.2205 92.148 75.2946 92.0259 75.3452C91.9039 75.3957 91.773 75.4217 91.6409 75.4217H82.3302C82.4623 75.4217 82.5931 75.3957 82.7152 75.3452C82.8373 75.2946 82.9482 75.2205 83.0416 75.1271C83.135 75.0336 83.2092 74.9227 83.2597 74.8007C83.3103 74.6786 83.3363 74.5478 83.3362 74.4156Z" fill="#FAC600"/>
<path d="M53.844 20.2393V7.81738C53.5806 7.93635 53.3407 8.10167 53.1358 8.30547L40.904 20.5373C40.7002 20.7422 40.5349 20.982 40.4159 21.2453H52.8377C53.1046 21.2453 53.3605 21.1393 53.5492 20.9507C53.7379 20.762 53.8439 20.5061 53.844 20.2393Z" fill="#E8B800"/>
<path d="M63.5277 23.7246H79.3477C80.1566 23.7246 80.8125 23.0689 80.8125 22.2598C80.8125 21.4506 80.1566 20.7949 79.3477 20.7949H63.5275C63.3352 20.7949 63.1447 20.8328 62.967 20.9065C62.7893 20.9801 62.6278 21.088 62.4918 21.224C62.3558 21.3601 62.2479 21.5216 62.1743 21.6993C62.1007 21.877 62.0628 22.0675 62.0628 22.2599C62.0628 22.4522 62.1007 22.6427 62.1743 22.8204C62.248 22.9981 62.3559 23.1596 62.4919 23.2956C62.6279 23.4317 62.7894 23.5395 62.9672 23.6131C63.1449 23.6867 63.3354 23.7246 63.5277 23.7246ZM53.4955 33.8016H79.3477C80.1566 33.8016 80.8125 33.1459 80.8125 32.3367C80.8125 31.5275 80.1566 30.8719 79.3477 30.8719H53.4955C52.6865 30.8719 52.0307 31.5275 52.0307 32.3367C52.0307 33.1459 52.6865 33.8016 53.4955 33.8016ZM53.4955 39.8211H79.3477C80.1566 39.8211 80.8125 39.1654 80.8125 38.3563C80.8125 37.5471 80.1566 36.8914 79.3477 36.8914H53.4955C52.6865 36.8914 52.0307 37.5471 52.0307 38.3563C52.0307 39.1654 52.6865 39.8211 53.4955 39.8211Z" fill="#00C27A"/>
<path d="M54.1316 42.9111H79.3477C80.1566 42.9111 80.8125 43.5668 80.8125 44.376C80.8125 45.1852 80.1566 45.8408 79.3477 45.8408H57.4348C56.432 44.7588 55.3256 43.7776 54.1316 42.9111ZM59.8371 48.9303H79.3477C80.1566 48.9303 80.8125 49.5859 80.8125 50.3951C80.8125 51.2043 80.1566 51.86 79.3477 51.86H61.4357C60.9764 50.845 60.442 49.8658 59.8371 48.9303ZM62.5662 54.9498H79.3477C80.1566 54.9498 80.8125 55.6055 80.8125 56.4146C80.8125 57.2238 80.1566 57.8795 79.3477 57.8795H63.1867C63.0459 56.8901 62.8386 55.9113 62.5662 54.9498ZM63.4145 61.0664C63.4145 61.0338 63.4133 61.0016 63.4133 60.9689H79.3477C80.1566 60.9689 80.8125 61.6246 80.8125 62.4338C80.8125 63.243 80.1566 63.8986 79.3477 63.8986H63.2361C63.3535 62.9709 63.4145 62.0256 63.4145 61.0664Z" fill="#00C27A"/>
<path d="M59.3551 73.917L71.1905 85.7523C72.7116 87.2734 72.7116 89.7396 71.1905 91.2607C69.6694 92.7818 67.2032 92.7818 65.6821 91.2607L53.8467 79.4254C55.9878 77.9218 57.8516 76.058 59.3551 73.917Z" fill="#596C76"/>
<path d="M67.1692 91.9174C68.6903 90.3963 68.6903 87.9301 67.1692 86.409L57.3962 76.6359C58.1601 75.8313 58.864 74.9719 59.5024 74.0645L71.1907 85.7527C72.7118 87.2738 72.7118 89.74 71.1907 91.2611C70.046 92.4059 68.3661 92.6885 66.9563 92.11C67.0282 92.0477 67.1007 91.9857 67.1692 91.9174Z" fill="#465A61"/>
<path d="M40.9962 83.6805C28.507 83.6805 18.3825 73.556 18.3825 61.0668C18.3825 48.5776 28.507 38.4531 40.9962 38.4531C53.4854 38.4531 63.6099 48.5776 63.6099 61.0668C63.6099 73.556 53.4854 83.6805 40.9962 83.6805Z" fill="#7A8C98"/>
<path d="M40.9962 77.0369C32.1761 77.0369 25.0261 69.8869 25.0261 61.0668C25.0261 52.2467 32.1761 45.0967 40.9962 45.0967C49.8162 45.0967 56.9663 52.2467 56.9663 61.0668C56.9663 69.8869 49.8162 77.0369 40.9962 77.0369Z" fill="#99E6FC"/>
<path d="M47.9559 61.067C47.9559 53.8119 43.1165 47.6908 36.4909 45.7455C37.9539 45.3152 39.471 45.0967 40.9959 45.0967C49.8161 45.0967 56.9661 52.2467 56.9661 61.0668C56.9661 69.8869 49.8161 77.0369 40.9959 77.0369C39.471 77.037 37.9539 76.8185 36.4909 76.3881C43.1165 74.443 47.9559 68.3219 47.9559 61.067Z" fill="#62DBFB"/>
<path d="M40.9962 78.5019C50.6099 78.5019 58.4312 70.6807 58.4312 61.0668C58.4312 51.4531 50.6099 43.6318 40.9962 43.6318C31.3825 43.6318 23.5612 51.4531 23.5612 61.0668C23.5612 70.6807 31.3825 78.5019 40.9962 78.5019ZM40.9962 46.5617C48.9944 46.5617 55.5015 53.0686 55.5015 61.067C55.5015 69.0654 48.9944 75.5725 40.9962 75.5725C32.9979 75.5725 26.4909 69.0654 26.4909 61.067C26.4909 53.0686 32.9979 46.5617 40.9962 46.5617Z" fill="#596C76"/>
<path d="M17.1823 31.3721H28.4056C28.5377 31.3721 28.6685 31.3461 28.7906 31.2955C28.9127 31.245 29.0236 31.1709 29.117 31.0775C29.2104 30.984 29.2845 30.8731 29.3351 30.751C29.3856 30.629 29.4116 30.4981 29.4116 30.366V19.1428C29.4116 19.0106 29.3856 18.8798 29.3351 18.7577C29.2845 18.6357 29.2104 18.5248 29.117 18.4313C29.0236 18.3379 28.9127 18.2638 28.7906 18.2132C28.6685 18.1627 28.5377 18.1367 28.4056 18.1367H17.1823C17.0502 18.1367 16.9194 18.1627 16.7973 18.2132C16.6752 18.2638 16.5643 18.3379 16.4709 18.4313C16.3774 18.5248 16.3033 18.6357 16.2528 18.7577C16.2022 18.8798 16.1762 19.0106 16.1763 19.1428V30.366C16.1764 30.6328 16.2824 30.8886 16.471 31.0773C16.6597 31.2659 16.9155 31.372 17.1823 31.3721Z" fill="#00C27A"/>
<path d="M23.1951 30.366V19.1428C23.1951 19.0106 23.1691 18.8798 23.1185 18.7577C23.068 18.6357 22.9939 18.5248 22.9005 18.4313C22.807 18.3379 22.6961 18.2638 22.574 18.2132C22.452 18.1627 22.3211 18.1367 22.189 18.1367H28.4058C28.5379 18.1367 28.6688 18.1627 28.7908 18.2132C28.9129 18.2638 29.0238 18.3379 29.1173 18.4313C29.2107 18.5248 29.2848 18.6357 29.3353 18.7577C29.3859 18.8798 29.4119 19.0106 29.4119 19.1428V30.366C29.4119 30.4981 29.3859 30.629 29.3353 30.751C29.2848 30.8731 29.2107 30.984 29.1173 31.0775C29.0238 31.1709 28.9129 31.245 28.7908 31.2955C28.6688 31.3461 28.5379 31.3721 28.4058 31.3721H22.189C22.3211 31.3721 22.452 31.3461 22.574 31.2955C22.6961 31.245 22.807 31.1709 22.9005 31.0775C22.9939 30.984 23.068 30.8731 23.1185 30.751C23.1691 30.629 23.1951 30.4981 23.1951 30.366Z" fill="#09A755"/>
<path d="M87.7707 63.7256H98.9939C99.1261 63.7256 99.2569 63.6996 99.379 63.6491C99.501 63.5985 99.612 63.5244 99.7054 63.431C99.7988 63.3375 99.8729 63.2266 99.9235 63.1046C99.974 62.9825 100 62.8517 100 62.7195V51.4963C100 51.3642 99.974 51.2333 99.9235 51.1113C99.8729 50.9892 99.7988 50.8783 99.7054 50.7848C99.612 50.6914 99.501 50.6173 99.379 50.5668C99.2569 50.5162 99.1261 50.4902 98.9939 50.4902H87.7707C87.6386 50.4902 87.5077 50.5162 87.3857 50.5668C87.2636 50.6173 87.1527 50.6914 87.0593 50.7848C86.9658 50.8783 86.8917 50.9892 86.8412 51.1113C86.7906 51.2333 86.7646 51.3642 86.7646 51.4963V62.7195C86.7646 62.9864 86.8706 63.2422 87.0593 63.4309C87.248 63.6196 87.5039 63.7256 87.7707 63.7256Z" fill="#01D0FB"/>
<path d="M93.8188 62.7195V51.4963C93.8188 51.3642 93.7928 51.2333 93.7422 51.1113C93.6917 50.9892 93.6176 50.8783 93.5241 50.7848C93.4307 50.6914 93.3198 50.6173 93.1977 50.5668C93.0757 50.5162 92.9448 50.4902 92.8127 50.4902H98.9939C99.1261 50.4902 99.2569 50.5162 99.379 50.5668C99.501 50.6173 99.612 50.6914 99.7054 50.7848C99.7988 50.8783 99.8729 50.9892 99.9235 51.1113C99.974 51.2333 100 51.3642 100 51.4963V62.7195C100 62.8517 99.974 62.9825 99.9235 63.1046C99.8729 63.2266 99.7988 63.3375 99.7054 63.431C99.612 63.5244 99.501 63.5985 99.379 63.6491C99.2569 63.6996 99.1261 63.7256 98.9939 63.7256H92.8127C93.0795 63.7256 93.3354 63.6196 93.5241 63.4309C93.7128 63.2422 93.8188 62.9864 93.8188 62.7195Z" fill="#01C0FA"/>
<path d="M1.00605 51.7148H12.2293C12.3614 51.7149 12.4923 51.6889 12.6143 51.6383C12.7364 51.5878 12.8473 51.5137 12.9407 51.4202C13.0342 51.3268 13.1083 51.2159 13.1588 51.0938C13.2094 50.9718 13.2354 50.8409 13.2354 50.7088V39.4855C13.2354 39.3534 13.2094 39.2226 13.1588 39.1005C13.1083 38.9784 13.0342 38.8675 12.9407 38.7741C12.8473 38.6807 12.7364 38.6066 12.6143 38.556C12.4923 38.5055 12.3614 38.4795 12.2293 38.4795H1.00605C0.873928 38.4795 0.743095 38.5055 0.621024 38.556C0.498952 38.6066 0.388031 38.6807 0.294605 38.7741C0.20118 38.8675 0.127073 38.9784 0.0765238 39.1005C0.0259733 39.2226 -2.86102e-05 39.3534 -2.86102e-06 39.4855V50.7088C-2.86102e-05 50.8409 0.0259733 50.9718 0.0765238 51.0938C0.127073 51.2159 0.20118 51.3268 0.294605 51.4202C0.388031 51.5137 0.498952 51.5878 0.621024 51.6383C0.743095 51.6889 0.873928 51.7149 1.00605 51.7148Z" fill="#FE646F"/>
<path d="M7.09843 50.7088V39.4855C7.09846 39.3534 7.07246 39.2226 7.02191 39.1005C6.97136 38.9784 6.89725 38.8675 6.80383 38.7741C6.7104 38.6807 6.59948 38.6066 6.47741 38.556C6.35534 38.5055 6.2245 38.4795 6.09238 38.4795H12.2293C12.3614 38.4795 12.4923 38.5055 12.6143 38.556C12.7364 38.6066 12.8473 38.6807 12.9407 38.7741C13.0342 38.8675 13.1083 38.9784 13.1588 39.1005C13.2094 39.2226 13.2354 39.3534 13.2354 39.4855V50.7088C13.2354 50.8409 13.2094 50.9718 13.1588 51.0938C13.1083 51.2159 13.0342 51.3268 12.9407 51.4202C12.8473 51.5137 12.7364 51.5878 12.6143 51.6383C12.4923 51.6889 12.3614 51.7149 12.2293 51.7148H6.09238C6.2245 51.7149 6.35534 51.6889 6.47741 51.6383C6.59948 51.5878 6.7104 51.5137 6.80383 51.4202C6.89725 51.3268 6.97136 51.2159 7.02191 51.0938C7.07246 50.9718 7.09846 50.8409 7.09843 50.7088Z" fill="#FD4755"/>
</svg>
