<svg width="16" height="18" viewBox="0 0 16 18" fill="none" xmlns="http://www.w3.org/2000/svg">
<g clip-path="url(#clip0_25748_2381)">
<path d="M7.8753 0C7.25304 0 6.7503 0.502734 6.7503 1.125V1.8C4.1839 2.32031 2.2503 4.59141 2.2503 7.3125V7.97344C2.2503 9.62578 1.6421 11.2219 0.545225 12.4594L0.285069 12.7512C-0.0102433 13.0816 -0.0805558 13.5563 0.0987411 13.9605C0.278038 14.3648 0.682335 14.625 1.1253 14.625H14.6253C15.0683 14.625 15.4691 14.3648 15.6519 13.9605C15.8347 13.5563 15.7609 13.0816 15.4655 12.7512L15.2054 12.4594C14.1085 11.2219 13.5003 9.6293 13.5003 7.97344V7.3125C13.5003 4.59141 11.5667 2.32031 9.0003 1.8V1.125C9.0003 0.502734 8.49757 0 7.8753 0ZM9.46788 17.3426C9.88976 16.9207 10.1253 16.3477 10.1253 15.75H7.8753H5.6253C5.6253 16.3477 5.86085 16.9207 6.28273 17.3426C6.7046 17.7645 7.27765 18 7.8753 18C8.47296 18 9.04601 17.7645 9.46788 17.3426Z" fill="white"/>
</g>
<defs>
<clipPath id="clip0_25748_2381">
<path d="M0 0H15.75V18H0V0Z" fill="white"/>
</clipPath>
</defs>
</svg>
