<svg width="22" height="22" viewBox="0 0 22 22" fill="none" xmlns="http://www.w3.org/2000/svg">
<path fill-rule="evenodd" clip-rule="evenodd" d="M0.25 11C0.25 5.06294 5.06294 0.25 11 0.25C16.9371 0.25 21.75 5.06294 21.75 11C21.75 16.9371 16.9371 21.75 11 21.75C5.06294 21.75 0.25 16.9371 0.25 11ZM6.25 8C6.25 7.0335 7.0335 6.25 8 6.25C8.9665 6.25 9.75 7.0335 9.75 8C9.75 8.9665 8.9665 9.75 8 9.75C7.0335 9.75 6.25 8.9665 6.25 8ZM12.25 14C12.25 13.0335 13.0335 12.25 14 12.25C14.9665 12.25 15.75 13.0335 15.75 14C15.75 14.9665 14.9665 15.75 14 15.75C13.0335 15.75 12.25 14.9665 12.25 14ZM15.7071 7.70711C16.0976 7.31658 16.0976 6.68342 15.7071 6.29289C15.3166 5.90237 14.6834 5.90237 14.2929 6.29289L6.29289 14.2929C5.90237 14.6834 5.90237 15.3166 6.29289 15.7071C6.68342 16.0976 7.31658 16.0976 7.70711 15.7071L15.7071 7.70711Z" fill="white"/>
</svg>
