<svg width="22" height="22" viewBox="0 0 22 22" fill="none" xmlns="http://www.w3.org/2000/svg">
<path d="M11.3461 18.917C11.1165 19.0285 10.852 19.0276 10.6231 18.9145L10.9871 18.0915L11.3461 18.917ZM6.70333 13.6899C6.70334 12.1284 7.90363 10.867 9.37898 10.867C9.99768 10.867 10.5669 11.0888 11.0198 11.4605C11.4659 11.1081 12.0201 10.8989 12.621 10.8989C14.0963 10.8989 15.2967 12.1602 15.2967 13.7217C15.2967 14.5323 15.0579 15.2523 14.7194 15.8623L14.6863 15.921C14.1198 16.9113 13.2654 17.6589 12.5995 18.1431C12.2596 18.3902 11.9525 18.5804 11.7288 18.7098C11.6167 18.7746 11.5247 18.8246 11.459 18.8592C11.4261 18.8765 11.3998 18.8901 11.3807 18.8997C11.3712 18.9045 11.3634 18.9084 11.3576 18.9112C11.3547 18.9127 11.3523 18.9139 11.3504 18.9148C11.3494 18.9153 11.3486 18.9157 11.3479 18.9161C11.3475 18.9163 11.3472 18.9164 11.3469 18.9166C11.3467 18.9166 11.3465 18.9167 11.3464 18.9167C11.3462 18.9165 11.3438 18.9112 11.3013 18.8137L10.9871 18.0915L10.6685 18.8115C10.623 18.9139 10.6227 18.9143 10.6226 18.9142C10.6225 18.9142 10.6222 18.914 10.622 18.9139C10.6216 18.9137 10.6211 18.9135 10.6206 18.9132C10.6195 18.9127 10.6183 18.9121 10.6168 18.9114C10.6139 18.9099 10.6101 18.908 10.6056 18.9057C10.5965 18.9011 10.5842 18.8948 10.5689 18.8868C10.5384 18.8709 10.4958 18.8483 10.4429 18.8191C10.3372 18.7609 10.1896 18.6763 10.0141 18.5663C9.66489 18.3477 9.19534 18.0232 8.72148 17.6016C7.80919 16.7898 6.70333 15.4574 6.70333 13.6899ZM20.2812 3.63391C20.2812 2.63044 19.5117 1.81696 18.5625 1.81696H3.4375C2.48826 1.81696 1.71875 2.63044 1.71875 3.63391V7.25376H20.2812V3.63391ZM8.42208 13.6899C8.42208 14.6313 9.02844 15.4997 9.82835 16.2115C10.2106 16.5516 10.5971 16.8196 10.89 17.003C10.925 17.0249 10.9585 17.0456 10.9904 17.0649C11.164 16.9615 11.3851 16.8209 11.6254 16.6461C12.2037 16.2256 12.8312 15.6528 13.2155 14.9809V14.9808L13.237 14.9428C13.4555 14.5493 13.5779 14.1434 13.5779 13.7217C13.5779 13.1687 13.1519 12.7158 12.621 12.7158C12.2513 12.7159 11.9302 12.9361 11.7702 13.2615C11.621 13.565 11.3232 13.7543 10.9996 13.7511C10.676 13.7478 10.3816 13.5527 10.2378 13.2463C10.081 12.912 9.75507 12.684 9.37898 12.684C8.84812 12.684 8.42209 13.1369 8.42208 13.6899ZM22 8.16224C22 8.66397 21.6152 9.07071 21.1406 9.07071H0.859375C0.384761 9.07071 9.92138e-06 8.66397 0 8.16224V3.63391C0 1.62696 1.53902 0 3.4375 0H18.5625C20.461 0 22 1.62696 22 3.63391V8.16224Z" fill="#108DF0"/>
<path d="M20.2812 18.1124V8.78497H1.71875V18.4301C1.71875 19.4159 2.48826 20.215 3.4375 20.215H18.5625C19.5117 20.215 20.2812 19.4159 20.2812 18.4301V17.5748C20.2813 17.0819 20.666 16.6823 21.1406 16.6823C21.6152 16.6823 22 17.0819 22 17.5748V18.4301C22 20.4017 20.461 22 18.5625 22H3.4375C1.53902 22 0 20.4017 0 18.4301V7.89249L0.000293732 7.86943C0.0120675 7.38718 0.392177 7 0.859375 7H21.1406L21.1628 7.00031C21.6272 7.01253 22 7.40729 22 7.89249V18.1124C22 18.6053 21.6152 19.0048 21.1406 19.0048C20.666 19.0048 20.2812 18.6053 20.2812 18.1124Z" fill="#108DF0"/>
</svg>
