<svg width="32" height="32" viewBox="0 0 32 32" fill="none" xmlns="http://www.w3.org/2000/svg">
<path d="M18.56 9.60047C18.56 8.92151 18.8297 8.27037 19.3098 7.79028C19.7899 7.31018 20.441 7.04047 21.12 7.04047H24.96C25.6389 7.04047 26.2901 7.31018 26.7702 7.79028C27.2503 8.27037 27.52 8.92151 27.52 9.60047V13.4405C27.52 14.1194 27.2503 14.7706 26.7702 15.2507C26.2901 15.7308 25.6389 16.0005 24.96 16.0005H21.12C20.441 16.0005 19.7899 15.7308 19.3098 15.2507C18.8297 14.7706 18.56 14.1194 18.56 13.4405V9.60047ZM18.56 21.1205C18.56 20.4415 18.8297 19.7904 19.3098 19.3103C19.7899 18.8302 20.441 18.5605 21.12 18.5605H24.96C25.6389 18.5605 26.2901 18.8302 26.7702 19.3103C27.2503 19.7904 27.52 20.4415 27.52 21.1205V24.9605C27.52 25.6394 27.2503 26.2906 26.7702 26.7707C26.2901 27.2508 25.6389 27.5205 24.96 27.5205H21.12C20.441 27.5205 19.7899 27.2508 19.3098 26.7707C18.8297 26.2906 18.56 25.6394 18.56 24.9605V21.1205ZM7.03998 21.1205C7.03998 20.4415 7.30969 19.7904 7.78979 19.3103C8.26988 18.8302 8.92103 18.5605 9.59998 18.5605H13.44C14.1189 18.5605 14.7701 18.8302 15.2502 19.3103C15.7303 19.7904 16 20.4415 16 21.1205V24.9605C16 25.6394 15.7303 26.2906 15.2502 26.7707C14.7701 27.2508 14.1189 27.5205 13.44 27.5205H9.59998C8.92103 27.5205 8.26988 27.2508 7.78979 26.7707C7.30969 26.2906 7.03998 25.6394 7.03998 24.9605V21.1205ZM4.47998 7.04047C4.47998 6.36151 4.74969 5.71037 5.22979 5.23028C5.70988 4.75018 6.36103 4.48047 7.03998 4.48047H13.44C14.1189 4.48047 14.7701 4.75018 15.2502 5.23028C15.7303 5.71037 16 6.36151 16 7.04047V13.4405C16 14.1194 15.7303 14.7706 15.2502 15.2507C14.7701 15.7308 14.1189 16.0005 13.44 16.0005H7.03998C6.36103 16.0005 5.70988 15.7308 5.22979 15.2507C4.74969 14.7706 4.47998 14.1194 4.47998 13.4405V7.04047Z" fill="#999999"/>
</svg>
