<svg width="32" height="32" viewBox="0 0 32 32" fill="none" xmlns="http://www.w3.org/2000/svg">
<path d="M7.47927 18.9764H9.26878C9.07249 17.9198 8.52121 16.9887 7.74279 16.3105L6.79858 17.8155C7.11233 18.1445 7.34535 18.5419 7.47927 18.9764Z" fill="#999999"/>
<path d="M4.67441 22.7687C3.05705 22.7687 1.74105 21.4528 1.74105 19.8355C1.74105 18.2181 3.05696 16.9022 4.67441 16.9022C4.98658 16.9022 5.28731 16.9516 5.56971 17.0424L6.51392 15.5375C5.93267 15.2885 5.30683 15.1604 4.6745 15.1611C2.09278 15.1611 0 17.2539 0 19.8355C0 22.417 2.09278 24.5098 4.67441 24.5098C7.02391 24.5098 8.96796 22.7761 9.29864 20.5183H7.52656C7.21793 21.8074 6.05665 22.7687 4.67441 22.7687ZM27.3257 15.1611C26.927 15.1609 26.53 15.2117 26.1442 15.312L26.8997 16.9335C27.0388 16.9132 27.181 16.9022 27.3257 16.9022C28.943 16.9022 30.259 18.2181 30.259 19.8355C30.259 21.4528 28.9431 22.7687 27.3257 22.7687C25.7083 22.7687 24.3924 21.4528 24.3924 19.8355C24.3924 18.9648 24.7741 18.182 25.3785 17.6443L24.6229 16.0229C23.4302 16.8699 22.6513 18.2613 22.6513 19.8355C22.6513 22.417 24.744 24.5098 27.3256 24.5098C29.9071 24.5098 32 22.417 32 19.8355C32 17.2539 29.9072 15.1611 27.3257 15.1611Z" fill="#999999"/>
<path d="M27.1087 20.4312L27.9216 20.0524L25.3961 14.6326L22.1892 7.75025C22.1446 7.65465 22.0678 7.57782 21.9722 7.53324C21.8766 7.48866 21.7684 7.4792 21.6665 7.50651L19.1906 8.17077L19.423 9.03703L21.5353 8.47032L22.24 9.98269C21.1855 10.0003 15.4732 10.2207 14.2521 12.9246H10.0198L8.13654 11.9653C7.69712 11.7415 7.21732 11.6079 6.72544 11.5726L3.68291 11.354C3.50504 11.3413 3.32738 11.3816 3.17248 11.47C3.01757 11.5584 2.8924 11.6907 2.81284 11.8503L2.69551 12.0856C2.58126 12.3149 2.56256 12.5802 2.64351 12.8232L2.65304 12.8519L0.129395 15.1369L0.467877 15.5108L2.88716 13.3203L7.51638 13.9395L7.5751 13.9473L7.69842 14.1617L4.67767 18.9765H5.74883L8.21059 15.0528L8.36431 15.3201L10.4664 18.9765L10.6229 19.2488H3.35677V20.246H11.1961L11.325 20.47C11.3344 20.4864 11.345 20.502 11.3548 20.5182C11.5608 20.8574 11.8507 21.1379 12.1965 21.3326C12.5423 21.5272 12.9324 21.6296 13.3293 21.6297H19.1408L22.1883 15.3636H18.7402V15.0868H22.3229L22.5309 14.6592H17.2412V14.3824H22.7885L24.1335 14.0462L24.5965 15.0397L27.1087 20.4312ZM25.9603 12.6317C26.8074 12.6317 26.8074 9.56417 25.9603 9.56417C25.1132 9.56417 24.4265 10.2508 24.4265 11.098C24.4265 11.9452 25.1132 12.6317 25.9603 12.6317Z" fill="#999999"/>
</svg>
