<svg width="32" height="32" viewBox="0 0 32 32" fill="none" xmlns="http://www.w3.org/2000/svg">
<path fill-rule="evenodd" clip-rule="evenodd" d="M2.5938 9.90003C2.5938 9.53128 2.89542 9.22972 3.26411 9.22972H7.9563V14.5922H2.5938V9.90003ZM9.29692 9.22972H14.6594V14.5922H9.29692V9.22972ZM16.0001 9.22972H21.3626V14.5922H16.0001V9.22972ZM22.7032 9.22972H27.1608C27.7976 9.22972 28.3674 9.69884 28.4679 10.3356L29.2387 15.095C29.3057 15.5977 29.3728 16.1004 29.3728 16.6032H24.7141L22.7032 14.5922V9.22972ZM1.25317 9.22972V21.2953C1.25317 22.0327 1.85649 22.636 2.5938 22.636H2.66086C2.62736 22.4348 2.5938 22.2002 2.5938 21.9657C2.5938 20.1223 4.10205 18.6141 5.94536 18.6141C7.78874 18.6141 9.29692 20.1223 9.29692 21.9657C9.29692 22.2002 9.26342 22.4348 9.22992 22.636H21.4296C21.3961 22.4348 21.3626 22.2002 21.3626 21.9657C21.3626 20.1223 22.8707 18.6141 24.7141 18.6141C26.5575 18.6141 28.0657 20.1223 28.0657 21.9657C28.0657 22.2002 28.0322 22.4348 27.9987 22.636H29.4063C30.1436 22.636 30.7469 22.0327 30.7469 21.2953V17.0053C30.7469 16.3014 30.6799 15.5641 30.5794 14.8602L29.8085 10.0677C29.5739 8.79397 28.4679 7.85547 27.1607 7.85547H2.5938C1.85649 7.88909 1.25317 8.49222 1.25317 9.22972Z" fill="white"/>
<path fill-rule="evenodd" clip-rule="evenodd" d="M27.0601 21.9653C27.0601 23.2609 26.0097 24.3114 24.714 24.3114C23.4182 24.3114 22.3679 23.261 22.3679 21.9653C22.3679 20.6696 23.4182 19.6191 24.714 19.6191C26.0097 19.6191 27.0601 20.6696 27.0601 21.9653ZM8.29131 21.9653C8.29131 23.2609 7.241 24.3114 5.94525 24.3114C4.6495 24.3114 3.59912 23.2609 3.59912 21.9653C3.59912 20.6696 4.6495 19.6191 5.94525 19.6191C7.241 19.6191 8.29131 20.6696 8.29131 21.9653Z" fill="white"/>
</svg>
