<svg width="33" height="32" viewBox="0 0 33 32" fill="none" xmlns="http://www.w3.org/2000/svg">
<path fill-rule="evenodd" clip-rule="evenodd" d="M3.0938 9.90003C3.0938 9.53128 3.39542 9.22972 3.76411 9.22972H8.4563V14.5922H3.0938V9.90003ZM9.79692 9.22972H15.1594V14.5922H9.79692V9.22972ZM16.5 9.22972H21.8625V14.5922H16.5V9.22972ZM23.2032 9.22972H27.6608C28.2975 9.22972 28.8674 9.69884 28.9679 10.3356L29.7387 15.095C29.8057 15.5977 29.8728 16.1004 29.8728 16.6032H25.2141L23.2032 14.5922V9.22972ZM1.75317 9.22972V21.2953C1.75317 22.0327 2.35649 22.636 3.0938 22.636H3.16086C3.12736 22.4348 3.0938 22.2002 3.0938 21.9657C3.0938 20.1223 4.60205 18.6141 6.44536 18.6141C8.28874 18.6141 9.79692 20.1223 9.79692 21.9657C9.79692 22.2002 9.76342 22.4348 9.72992 22.636H21.9296C21.8961 22.4348 21.8625 22.2002 21.8625 21.9657C21.8625 20.1223 23.3707 18.6141 25.2141 18.6141C27.0575 18.6141 28.5657 20.1223 28.5657 21.9657C28.5657 22.2002 28.5322 22.4348 28.4987 22.636H29.9063C30.6436 22.636 31.2469 22.0327 31.2469 21.2953V17.0053C31.2469 16.3014 31.1799 15.5641 31.0794 14.8602L30.3085 10.0677C30.0739 8.79397 28.9679 7.85547 27.6607 7.85547H3.0938C2.35649 7.88909 1.75317 8.49222 1.75317 9.22972Z" fill="white"/>
<path fill-rule="evenodd" clip-rule="evenodd" d="M27.5601 21.9653C27.5601 23.2609 26.5097 24.3114 25.214 24.3114C23.9182 24.3114 22.8679 23.261 22.8679 21.9653C22.8679 20.6696 23.9182 19.6191 25.214 19.6191C26.5097 19.6191 27.5601 20.6696 27.5601 21.9653ZM8.79131 21.9653C8.79131 23.2609 7.741 24.3114 6.44525 24.3114C5.1495 24.3114 4.09912 23.2609 4.09912 21.9653C4.09912 20.6696 5.1495 19.6191 6.44525 19.6191C7.741 19.6191 8.79131 20.6696 8.79131 21.9653Z" fill="white"/>
</svg>
