<svg width="36" height="36" viewBox="0 0 36 36" fill="none" xmlns="http://www.w3.org/2000/svg">
<circle cx="18" cy="18" r="17.5" stroke="black"/>
<g clip-path="url(#clip0_24213_8420)">
<path d="M19.4658 18.0127L25.696 11.7824C26.1014 11.3771 26.1014 10.7219 25.696 10.3166C25.2907 9.91138 24.6355 9.91138 24.2303 10.3166L17.9999 16.5469L11.7698 10.3166C11.3644 9.91138 10.7094 9.91138 10.3041 10.3166C9.89864 10.7219 9.89864 11.3771 10.3041 11.7824L16.5341 18.0127L10.3041 24.2429C9.89868 24.6482 9.89868 25.3034 10.3041 25.7087C10.4003 25.8051 10.5145 25.8815 10.6403 25.9336C10.766 25.9858 10.9009 26.0125 11.037 26.0124C11.3023 26.0124 11.5677 25.9108 11.7699 25.7087L17.9999 19.4784L24.2303 25.7087C24.3264 25.805 24.4406 25.8815 24.5664 25.9336C24.6922 25.9857 24.827 26.0125 24.9631 26.0124C25.2284 26.0124 25.4939 25.9108 25.696 25.7087C26.1014 25.3034 26.1014 24.6482 25.696 24.2429L19.4658 18.0127Z" fill="black"/>
</g>
<defs>
<clipPath id="clip0_24213_8420">
<rect width="16" height="16" fill="white" transform="translate(10 10)"/>
</clipPath>
</defs>
</svg>
