<svg width="32" height="32" viewBox="0 0 32 32" fill="none" xmlns="http://www.w3.org/2000/svg">
<path fill-rule="evenodd" clip-rule="evenodd" d="M24.0391 30H19.2266V23.5469C19.2266 23.3828 19.0625 23.2188 18.8984 23.2188H12.8828C12.7188 23.2188 12.5547 23.3828 12.5547 23.5469V30H8.01562C7.90625 30 7.85156 29.8359 7.85156 29.6719V10.4766C7.85156 10.3125 7.90625 10.1484 8.01562 10.1484H24.0391C24.1484 10.1484 24.2578 10.3125 24.2578 10.4766V29.6719C24.2578 29.8359 24.1484 30 24.0391 30ZM18.5703 30H16.2188V23.875H18.5703V30ZM15.5625 30H13.2109V23.875H15.5625V30ZM12.3359 14.4141H10.2578C10.0938 14.4141 9.92969 14.25 9.92969 14.0859V12.1172C9.92969 11.9531 10.0938 11.7891 10.2578 11.7891H12.3359C12.5 11.7891 12.6641 11.9531 12.6641 12.1172V14.0859C12.6641 14.25 12.5 14.4141 12.3359 14.4141ZM16.9844 21.5781H14.9062C14.7422 21.5781 14.5781 21.4141 14.5781 21.25V19.2812C14.5781 19.1172 14.7422 18.9531 14.9062 18.9531H16.9844C17.2031 18.9531 17.3125 19.1172 17.3125 19.2812V21.25C17.3125 21.4141 17.2031 21.5781 16.9844 21.5781ZM15.2344 20.9219H16.6562V19.6094H15.2344V20.9219ZM21.7969 21.5781H19.7188C19.5547 21.5781 19.3906 21.4141 19.3906 21.25V19.2812C19.3906 19.1172 19.5547 18.9531 19.7188 18.9531H21.7969C22.0156 18.9531 22.125 19.1172 22.125 19.2812V21.25C22.125 21.4141 22.0156 21.5781 21.7969 21.5781ZM20.0469 20.9219H21.4688V19.6094H20.0469V20.9219ZM12.3359 21.5781H10.2578C10.0938 21.5781 9.92969 21.4141 9.92969 21.25V19.2812C9.92969 19.1172 10.0938 18.9531 10.2578 18.9531H12.3359C12.5 18.9531 12.6641 19.1172 12.6641 19.2812V21.25C12.6641 21.4141 12.5 21.5781 12.3359 21.5781ZM10.5859 20.9219H12.0078V19.6094H10.5859V20.9219ZM16.9844 17.9688H14.9062C14.7422 17.9688 14.5781 17.8594 14.5781 17.6406V15.7266C14.5781 15.5078 14.7422 15.3984 14.9062 15.3984H16.9844C17.2031 15.3984 17.3125 15.5078 17.3125 15.7266V17.6406C17.3125 17.8594 17.2031 17.9688 16.9844 17.9688ZM15.2344 17.3125H16.6562V16.0547H15.2344V17.3125ZM16.9844 14.4141H14.9062C14.7422 14.4141 14.5781 14.25 14.5781 14.0859V12.1172C14.5781 11.9531 14.7422 11.7891 14.9062 11.7891H16.9844C17.2031 11.7891 17.3125 11.9531 17.3125 12.1172V14.0859C17.3125 14.25 17.2031 14.4141 16.9844 14.4141ZM15.2344 13.7578H16.6562V12.4453H15.2344V13.7578ZM21.7969 17.9688H19.7188C19.5547 17.9688 19.3906 17.8594 19.3906 17.6406V15.7266C19.3906 15.5078 19.5547 15.3984 19.7188 15.3984H21.7969C22.0156 15.3984 22.125 15.5078 22.125 15.7266V17.6406C22.125 17.8594 22.0156 17.9688 21.7969 17.9688ZM20.0469 17.3125H21.4688V16.0547H20.0469V17.3125ZM21.7969 14.4141H19.7188C19.5547 14.4141 19.3906 14.25 19.3906 14.0859V12.1172C19.3906 11.9531 19.5547 11.7891 19.7188 11.7891H21.7969C22.0156 11.7891 22.125 11.9531 22.125 12.1172V14.0859C22.125 14.25 22.0156 14.4141 21.7969 14.4141ZM20.0469 13.7578H21.4688V12.4453H20.0469V13.7578ZM12.3359 17.9688H10.2578C10.0938 17.9688 9.92969 17.8594 9.92969 17.6406V15.7266C9.92969 15.5078 10.0938 15.3984 10.2578 15.3984H12.3359C12.5 15.3984 12.6641 15.5078 12.6641 15.7266V17.6406C12.6641 17.8594 12.5 17.9688 12.3359 17.9688ZM10.5859 17.3125H12.0078V16.0547H10.5859V17.3125ZM10.5859 13.7578H12.0078V12.4453H10.5859V13.7578ZM7.25 30H2.27344C2.10938 30 1.94531 29.8359 1.94531 29.6719V10.4766C1.94531 10.3125 2.10938 10.1484 2.27344 10.1484H7.25H7.19531V30H7.25ZM5.66406 28.5234H3.53125C3.36719 28.5234 3.20312 28.4141 3.20312 28.1953V26.2812C3.20312 26.0625 3.36719 25.9531 3.53125 25.9531H5.66406C5.82812 25.9531 5.99219 26.0625 5.99219 26.2812V28.1953C5.99219 28.4141 5.82812 28.5234 5.66406 28.5234ZM5.66406 24.9688H3.53125C3.36719 24.9688 3.20312 24.8047 3.20312 24.6406V22.6719C3.20312 22.5078 3.36719 22.3438 3.53125 22.3438H5.66406C5.82812 22.3438 5.99219 22.5078 5.99219 22.6719V24.6406C5.99219 24.8047 5.82812 24.9688 5.66406 24.9688ZM3.85938 24.3125H5.33594V23H3.85938V24.3125ZM5.66406 21.3594H3.53125C3.36719 21.3594 3.20312 21.25 3.20312 21.0312V19.1172C3.20312 18.8984 3.36719 18.7891 3.53125 18.7891H5.66406C5.82812 18.7891 5.99219 18.8984 5.99219 19.1172V21.0312C5.99219 21.25 5.82812 21.3594 5.66406 21.3594ZM3.85938 20.7031H5.33594V19.4453H3.85938V20.7031ZM5.66406 17.8047H3.53125C3.36719 17.8047 3.20312 17.6406 3.20312 17.4766V15.5078C3.20312 15.3438 3.36719 15.1797 3.53125 15.1797H5.66406C5.82812 15.1797 5.99219 15.3438 5.99219 15.5078V17.4766C5.99219 17.6406 5.82812 17.8047 5.66406 17.8047ZM3.85938 17.1484H5.33594V15.8359H3.85938V17.1484ZM5.66406 14.1953H3.53125C3.36719 14.1953 3.20312 14.0312 3.20312 13.8672V11.8984C3.20312 11.7344 3.36719 11.5703 3.53125 11.5703H5.66406C5.82812 11.5703 5.99219 11.7344 5.99219 11.8984V13.8672C5.99219 14.0312 5.82812 14.1953 5.66406 14.1953ZM3.85938 13.5391H5.33594V12.2266H3.85938V13.5391ZM3.85938 27.8672H5.33594V26.6094H3.85938V27.8672ZM25.4609 8.28906H6.375C6.15625 8.28906 6.04688 8.125 6.04688 7.96094V2.32812C6.04688 2.16406 6.15625 2 6.375 2H25.4609C25.625 2 25.7891 2.16406 25.7891 2.32812V7.96094C25.7891 8.125 25.625 8.28906 25.4609 8.28906ZM8.01562 6.48438C7.79688 6.48438 7.6875 6.32031 7.6875 6.15625V4.13281C7.6875 3.96875 7.79688 3.80469 8.01562 3.80469C8.17969 3.80469 8.34375 3.96875 8.34375 4.13281V4.84375H9.27344V4.13281C9.27344 3.96875 9.4375 3.80469 9.60156 3.80469C9.76562 3.80469 9.92969 3.96875 9.92969 4.13281V6.15625C9.92969 6.32031 9.76562 6.48438 9.60156 6.48438C9.4375 6.48438 9.27344 6.32031 9.27344 6.15625V5.5H8.34375V6.15625C8.34375 6.32031 8.17969 6.48438 8.01562 6.48438ZM16.2734 6.48438C16.0547 6.48438 15.9453 6.32031 15.9453 6.15625V4.46094H15.0156C14.7969 4.46094 14.6875 4.29688 14.6875 4.13281C14.6875 3.96875 14.7969 3.80469 15.0156 3.80469H17.4766C17.6953 3.80469 17.8047 3.96875 17.8047 4.13281C17.8047 4.29688 17.6953 4.46094 17.4766 4.46094H16.6016V6.15625C16.6016 6.32031 16.4375 6.48438 16.2734 6.48438ZM23.8203 6.48438H22.2891C22.125 6.48438 21.9609 6.32031 21.9609 6.15625V4.1875C21.9609 3.96875 22.125 3.85938 22.2891 3.85938C22.5078 3.85938 22.6172 3.96875 22.6172 4.1875V5.82812H23.8203C23.9844 5.82812 24.1484 5.99219 24.1484 6.15625C24.1484 6.32031 23.9844 6.48438 23.8203 6.48438ZM20.5938 5.5H19.4453V5.77344H20.5938C20.7578 5.77344 20.9219 5.9375 20.9219 6.10156C20.9219 6.32031 20.7578 6.42969 20.5938 6.42969H19.1172C18.9531 6.42969 18.7891 6.32031 18.7891 6.10156V4.1875C18.7891 3.96875 18.9531 3.85938 19.1172 3.85938H20.6484C20.8672 3.85938 20.9766 3.96875 20.9766 4.1875C20.9766 4.35156 20.8672 4.51562 20.6484 4.51562H19.4453V4.84375H20.5938C20.7578 4.84375 20.9219 4.95312 20.9219 5.17188C20.9219 5.33594 20.7578 5.5 20.5938 5.5ZM12.2812 6.48438C11.5156 6.48438 10.9141 5.88281 10.9141 5.11719C10.9141 4.40625 11.5156 3.80469 12.2812 3.80469C13.0469 3.80469 13.7031 4.40625 13.7031 5.11719C13.7031 5.88281 13.0469 6.48438 12.2812 6.48438ZM12.2812 4.46094C11.8984 4.46094 11.5703 4.78906 11.5703 5.11719C11.5703 5.5 11.8984 5.82812 12.2812 5.82812C12.7188 5.82812 13.0469 5.5 13.0469 5.11719C13.0469 4.78906 12.7188 4.46094 12.2812 4.46094Z" fill="#999999"/>
<path fill-rule="evenodd" clip-rule="evenodd" d="M21.4141 10.8047H10.5312C10.3672 10.8047 10.2031 10.6406 10.2031 10.4766V7.96094C10.2031 7.79688 10.3672 7.63281 10.5312 7.63281H21.4141C21.5781 7.63281 21.7422 7.79688 21.7422 7.96094V10.4766C21.7422 10.6406 21.5781 10.8047 21.4141 10.8047ZM10.8594 10.1484H21.0859V8.28906H10.8594V10.1484ZM24.8594 30H29.7266C29.8906 30 30.0547 29.8359 30.0547 29.6719V10.4766C30.0547 10.3125 29.8906 10.1484 29.7266 10.1484H24.8594C24.8594 10.2578 24.9141 10.3672 24.9141 10.4766V29.6719C24.9141 29.7812 24.8594 29.8906 24.8594 30ZM26.3359 28.5234H28.4688C28.6328 28.5234 28.7969 28.4141 28.7969 28.1953V26.2812C28.7969 26.0625 28.6328 25.9531 28.4688 25.9531H26.3359C26.1719 25.9531 26.0078 26.0625 26.0078 26.2812V28.1953C26.0078 28.4141 26.1719 28.5234 26.3359 28.5234ZM26.3359 24.9688H28.4688C28.6328 24.9688 28.7969 24.8047 28.7969 24.6406V22.6719C28.7969 22.5078 28.6328 22.3438 28.4688 22.3438H26.3359C26.1719 22.3438 26.0078 22.5078 26.0078 22.6719V24.6406C26.0078 24.8047 26.1719 24.9688 26.3359 24.9688ZM28.1406 24.3125H26.6641V23H28.1406V24.3125ZM26.3359 21.3594H28.4688C28.6328 21.3594 28.7969 21.25 28.7969 21.0312V19.1172C28.7969 18.8984 28.6328 18.7891 28.4688 18.7891H26.3359C26.1719 18.7891 26.0078 18.8984 26.0078 19.1172V21.0312C26.0078 21.25 26.1719 21.3594 26.3359 21.3594ZM28.1406 20.7031H26.6641V19.4453H28.1406V20.7031ZM26.3359 17.8047H28.4688C28.6328 17.8047 28.7969 17.6406 28.7969 17.4766V15.5078C28.7969 15.3438 28.6328 15.1797 28.4688 15.1797H26.3359C26.1719 15.1797 26.0078 15.3438 26.0078 15.5078V17.4766C26.0078 17.6406 26.1719 17.8047 26.3359 17.8047ZM28.1406 17.1484H26.6641V15.8359H28.1406V17.1484ZM26.3359 14.1953H28.4688C28.6328 14.1953 28.7969 14.0312 28.7969 13.8672V11.8984C28.7969 11.7344 28.6328 11.5703 28.4688 11.5703H26.3359C26.1719 11.5703 26.0078 11.7344 26.0078 11.8984V13.8672C26.0078 14.0312 26.1719 14.1953 26.3359 14.1953ZM28.1406 13.5391H26.6641V12.2266H28.1406V13.5391ZM28.1406 27.8672H26.6641V26.6094H28.1406V27.8672Z" fill="#999999"/>
</svg>
