<svg width="32" height="33" viewBox="0 0 32 33" fill="none" xmlns="http://www.w3.org/2000/svg">
<rect y="0.5" width="32" height="32" rx="16" fill="#F0F0F0"/>
<path d="M8.71753 13.8355V21.133C8.71753 22.558 9.73003 23.143 10.96 22.438L12.7225 21.433C13.105 21.2155 13.7425 21.193 14.14 21.3955L18.0775 23.368C18.475 23.563 19.1125 23.548 19.495 23.3305L22.7425 21.4705C23.155 21.2305 23.5 20.6455 23.5 20.1655V12.868C23.5 11.443 22.4875 10.858 21.2575 11.563L19.495 12.568C19.1125 12.7855 18.475 12.808 18.0775 12.6055L14.14 10.6405C13.7425 10.4455 13.105 10.4605 12.7225 10.678L9.47503 12.538C9.05503 12.778 8.71753 13.363 8.71753 13.8355Z" stroke="black" stroke-linecap="round" stroke-linejoin="round"/>
<path d="M13.4199 11V20.75" stroke="black" stroke-linecap="round" stroke-linejoin="round"/>
<path d="M18.7976 12.9648V22.9998" stroke="black" stroke-linecap="round" stroke-linejoin="round"/>
</svg>
