<svg width="32" height="32" viewBox="0 0 32 32" fill="none" xmlns="http://www.w3.org/2000/svg">
<path d="M13.2166 8H18.7834C19.0161 8 19.0847 7.62561 18.8727 7.51219L16.0893 6.02279C16.0612 6.00777 16.0308 6 16 6C15.9692 6 15.9387 6.00777 15.9107 6.02279L13.1273 7.51219C12.9153 7.62561 12.9838 8 13.2166 8Z" fill="#999999"/>
<path d="M28.152 7.6308L16.602 2.1365C16.414 2.04664 16.2083 2 16 2C15.7917 2 15.586 2.04664 15.398 2.1365L3.848 7.6308C3.36325 7.86121 3.05 8.35645 3.05 8.89311V9.70217C3.05 10.4733 3.67825 11.1004 4.45 11.1004H27.55C28.3218 11.1004 28.95 10.4733 28.95 9.70217V8.89311C28.95 8.35645 28.6368 7.86121 28.152 7.6308ZM22.6978 8.14558C22.6753 8.24983 22.6177 8.34322 22.5347 8.4102C22.4517 8.47718 22.3483 8.51372 22.2417 8.51371H9.75833C9.65167 8.51373 9.54822 8.47721 9.4652 8.41024C9.38219 8.34326 9.32463 8.24987 9.3021 8.14561C9.27958 8.04135 9.29345 7.93253 9.3414 7.83725C9.38935 7.74198 9.4685 7.66601 9.56566 7.62199L15.8073 4.79218C15.8679 4.76476 15.9335 4.75058 16 4.75058C16.0665 4.75058 16.1321 4.76476 16.1927 4.79218L22.4343 7.62199C22.5315 7.66603 22.6106 7.742 22.6585 7.83727C22.7064 7.93253 22.7203 8.04134 22.6978 8.14558ZM17.8275 25.2168H14.1725C14.1104 25.2168 14.0489 25.2044 13.9917 25.1803C13.9344 25.1562 13.8825 25.1209 13.8391 25.0766C13.7956 25.0322 13.7615 24.9796 13.7386 24.9218C13.7158 24.864 13.7047 24.8023 13.706 24.7402L13.9188 14.705C13.9213 14.5824 13.972 14.4658 14.0598 14.3803C14.1477 14.2948 14.2657 14.2474 14.3882 14.2482C15.1874 14.2539 16.8126 14.2539 17.6118 14.2482C17.7344 14.2474 17.8524 14.2948 17.9402 14.3803C18.0281 14.4658 18.0788 14.5824 18.0813 14.705L18.2941 24.7402C18.2954 24.8023 18.2843 24.864 18.2614 24.9218C18.2386 24.9796 18.2044 25.0322 18.161 25.0766C18.1175 25.1209 18.0657 25.1562 18.0084 25.1803C17.9511 25.2044 17.8896 25.2168 17.8275 25.2168ZM10.1083 14.7152V24.7501C10.1083 24.8739 10.0592 24.9926 9.97165 25.0801C9.88413 25.1676 9.76543 25.2168 9.64167 25.2168H5.98743C5.72196 25.2168 5.50992 24.9956 5.52117 24.7303L5.94672 14.6951C5.95184 14.5741 6.0038 14.4598 6.09161 14.3764C6.17942 14.293 6.2962 14.247 6.41729 14.2482C7.2136 14.2555 8.83626 14.2532 9.63916 14.2485C9.70065 14.2482 9.76161 14.26 9.81852 14.2833C9.87544 14.3066 9.92718 14.3409 9.97078 14.3843C10.0144 14.4277 10.049 14.4792 10.0726 14.536C10.0962 14.5928 10.1083 14.6537 10.1083 14.7152ZM26.0126 25.2168H22.3583C22.2346 25.2168 22.1159 25.1676 22.0284 25.0801C21.9408 24.9926 21.8917 24.8739 21.8917 24.7501V14.7152C21.8917 14.6537 21.9038 14.5928 21.9274 14.536C21.951 14.4792 21.9856 14.4276 22.0292 14.3843C22.0728 14.3409 22.1246 14.3066 22.1815 14.2833C22.2384 14.26 22.2993 14.2482 22.3608 14.2485C23.1638 14.2532 24.7865 14.2553 25.5827 14.2481C25.7038 14.247 25.8206 14.293 25.9084 14.3764C25.9962 14.4598 26.0482 14.574 26.0533 14.695L26.4788 24.7303C26.49 24.9956 26.278 25.2168 26.0126 25.2168ZM30 27.5501V28.6C30 29.3718 29.3717 30 28.6 30H3.4C2.62825 30 2 29.3718 2 28.6V27.5501C2 26.7783 2.62825 26.1501 3.4 26.1501H28.6C29.3717 26.1501 30 26.7783 30 27.5501ZM10.6612 12.0337C11.0456 12.0337 11.2721 12.4779 11.0347 12.7803C10.7783 13.1069 10.3799 13.317 9.93333 13.317H6.2C5.75346 13.317 5.35504 13.1068 5.09861 12.7802C4.86119 12.4778 5.0877 12.0337 5.47217 12.0337H10.6612ZM18.5945 12.0337C18.979 12.0337 19.2055 12.4779 18.9681 12.7803C18.7116 13.1069 18.3132 13.317 17.8667 13.317H14.1333C13.6868 13.317 13.2884 13.1068 13.0319 12.7802C12.7945 12.4778 13.021 12.0337 13.4055 12.0337H18.5945ZM26.5278 12.0337C26.9123 12.0337 27.1388 12.4779 26.9014 12.7803C26.645 13.1069 26.2465 13.317 25.8 13.317H22.0667C21.6201 13.317 21.2217 13.1068 20.9653 12.7802C20.7279 12.4778 20.9544 12.0337 21.3388 12.0337H26.5278Z" fill="#999999"/>
</svg>
