<svg width="24" height="25" viewBox="0 0 24 25" fill="none" xmlns="http://www.w3.org/2000/svg">
<g clip-path="url(#clip0_23825_6679)">
<path d="M9.1499 7.99023C8.5899 7.99023 8.1499 8.44023 8.1499 8.99023C8.1499 9.54023 8.5999 9.99023 9.1499 9.99023C9.6999 9.99023 10.1499 9.54023 10.1499 8.99023C10.1499 8.44023 9.6999 7.99023 9.1499 7.99023Z" fill="white"/>
<path d="M21.46 5.54C20.62 3.59 18.77 2.5 16.19 2.5H7.81C4.6 2.5 2 5.1 2 8.31V16.69C2 19.27 3.09 21.12 5.04 21.96C5.23 22.04 5.45 21.99 5.59 21.85L21.35 6.09C21.5 5.94 21.55 5.72 21.46 5.54ZM10.53 12.74C10.14 13.12 9.63 13.3 9.12 13.3C8.61 13.3 8.1 13.11 7.71 12.74C6.69 11.78 5.57 10.25 6 8.43C6.38 6.78 7.84 6.04 9.12 6.04C10.4 6.04 11.86 6.78 12.24 8.44C12.66 10.25 11.54 11.78 10.53 12.74Z" fill="white"/>
<path d="M19.4699 21.0295C19.6899 21.2495 19.6599 21.6095 19.3899 21.7595C18.5099 22.2495 17.4399 22.4995 16.1899 22.4995H7.8099C7.5199 22.4995 7.3999 22.1595 7.5999 21.9595L13.6399 15.9195C13.8399 15.7195 14.1499 15.7195 14.3499 15.9195L19.4699 21.0295Z" fill="white"/>
<path d="M22 8.3099V16.6899C22 17.9399 21.75 19.0199 21.26 19.8899C21.11 20.1599 20.75 20.1799 20.53 19.9699L15.41 14.8499C15.21 14.6499 15.21 14.3399 15.41 14.1399L21.45 8.0999C21.66 7.8999 22 8.0199 22 8.3099Z" fill="white"/>
</g>
<defs>
<clipPath id="clip0_23825_6679">
<rect width="24" height="24" fill="white" transform="translate(0 0.5)"/>
</clipPath>
</defs>
</svg>
