<svg width="100" height="86" viewBox="0 0 100 86" fill="none" xmlns="http://www.w3.org/2000/svg">
<path d="M56.8556 38.2068C52.6261 33.9773 46.9937 31.6481 40.9958 31.6481C40.7282 31.6481 40.4618 31.6543 40.1958 31.6635V15.2471C40.1958 14.6059 40.4505 13.9909 40.9038 13.5375L53.1356 1.30566C53.5891 0.852327 54.204 0.597654 54.8452 0.597656H91.6409C91.773 0.597631 91.9039 0.623636 92.0259 0.674186C92.148 0.724736 92.2589 0.79884 92.3524 0.892266C92.4458 0.985692 92.5199 1.09661 92.5704 1.21868C92.621 1.34075 92.647 1.47159 92.647 1.60371V67.4156C92.647 67.5478 92.621 67.6786 92.5704 67.8007C92.5199 67.9227 92.4458 68.0336 92.3524 68.1271C92.2589 68.2205 92.148 68.2946 92.0259 68.3452C91.9039 68.3957 91.773 68.4217 91.6409 68.4217H58.2282C65.5722 59.6188 65.1155 46.4668 56.8556 38.2068Z" fill="#FED402"/>
<path d="M83.3362 67.4156V1.60371C83.3363 1.47159 83.3103 1.34075 83.2597 1.21868C83.2092 1.09661 83.135 0.985692 83.0416 0.892266C82.9482 0.79884 82.8373 0.724736 82.7152 0.674186C82.5931 0.623636 82.4623 0.597631 82.3302 0.597656H91.6409C91.773 0.597631 91.9039 0.623636 92.0259 0.674186C92.148 0.724736 92.2589 0.79884 92.3524 0.892266C92.4458 0.985692 92.5199 1.09661 92.5704 1.21868C92.621 1.34075 92.647 1.47159 92.647 1.60371V67.4156C92.647 67.5478 92.621 67.6786 92.5704 67.8007C92.5199 67.9227 92.4458 68.0336 92.3524 68.1271C92.2589 68.2205 92.148 68.2946 92.0259 68.3452C91.9039 68.3957 91.773 68.4217 91.6409 68.4217H82.3302C82.4623 68.4217 82.5931 68.3957 82.7152 68.3452C82.8373 68.2946 82.9482 68.2205 83.0416 68.1271C83.135 68.0336 83.2092 67.9227 83.2597 67.8007C83.3103 67.6786 83.3363 67.5478 83.3362 67.4156Z" fill="#FAC600"/>
<path d="M53.844 13.2393V0.817383C53.5806 0.936351 53.3407 1.10167 53.1358 1.30547L40.904 13.5373C40.7002 13.7422 40.5349 13.982 40.4159 14.2453H52.8377C53.1046 14.2453 53.3605 14.1393 53.5492 13.9507C53.7379 13.762 53.8439 13.5061 53.844 13.2393Z" fill="#E8B800"/>
<path d="M63.5277 16.7246H79.3477C80.1566 16.7246 80.8125 16.0689 80.8125 15.2598C80.8125 14.4506 80.1566 13.7949 79.3477 13.7949H63.5275C63.3352 13.7949 63.1447 13.8328 62.967 13.9065C62.7893 13.9801 62.6278 14.088 62.4918 14.224C62.3558 14.3601 62.2479 14.5216 62.1743 14.6993C62.1007 14.877 62.0628 15.0675 62.0628 15.2599C62.0628 15.4522 62.1007 15.6427 62.1743 15.8204C62.248 15.9981 62.3559 16.1596 62.4919 16.2956C62.6279 16.4317 62.7894 16.5395 62.9672 16.6131C63.1449 16.6867 63.3354 16.7246 63.5277 16.7246ZM53.4955 26.8016H79.3477C80.1566 26.8016 80.8125 26.1459 80.8125 25.3367C80.8125 24.5275 80.1566 23.8719 79.3477 23.8719H53.4955C52.6865 23.8719 52.0307 24.5275 52.0307 25.3367C52.0307 26.1459 52.6865 26.8016 53.4955 26.8016ZM53.4955 32.8211H79.3477C80.1566 32.8211 80.8125 32.1654 80.8125 31.3563C80.8125 30.5471 80.1566 29.8914 79.3477 29.8914H53.4955C52.6865 29.8914 52.0307 30.5471 52.0307 31.3563C52.0307 32.1654 52.6865 32.8211 53.4955 32.8211Z" fill="#00C27A"/>
<path d="M54.1316 35.9111H79.3477C80.1566 35.9111 80.8125 36.5668 80.8125 37.376C80.8125 38.1852 80.1566 38.8408 79.3477 38.8408H57.4348C56.432 37.7588 55.3256 36.7776 54.1316 35.9111ZM59.8371 41.9303H79.3477C80.1566 41.9303 80.8125 42.5859 80.8125 43.3951C80.8125 44.2043 80.1566 44.86 79.3477 44.86H61.4357C60.9764 43.845 60.442 42.8658 59.8371 41.9303ZM62.5662 47.9498H79.3477C80.1566 47.9498 80.8125 48.6055 80.8125 49.4146C80.8125 50.2238 80.1566 50.8795 79.3477 50.8795H63.1867C63.0459 49.8901 62.8386 48.9113 62.5662 47.9498ZM63.4145 54.0664C63.4145 54.0338 63.4133 54.0016 63.4133 53.9689H79.3477C80.1566 53.9689 80.8125 54.6246 80.8125 55.4338C80.8125 56.243 80.1566 56.8986 79.3477 56.8986H63.2361C63.3535 55.9709 63.4145 55.0256 63.4145 54.0664Z" fill="#00C27A"/>
<path d="M59.3551 66.917L71.1905 78.7523C72.7116 80.2734 72.7116 82.7396 71.1905 84.2607C69.6694 85.7818 67.2032 85.7818 65.6821 84.2607L53.8467 72.4254C55.9878 70.9218 57.8516 69.058 59.3551 66.917Z" fill="#596C76"/>
<path d="M67.1692 84.9174C68.6903 83.3963 68.6903 80.9301 67.1692 79.409L57.3962 69.6359C58.1601 68.8313 58.864 67.9719 59.5024 67.0645L71.1907 78.7527C72.7118 80.2738 72.7118 82.74 71.1907 84.2611C70.046 85.4059 68.3661 85.6885 66.9563 85.11C67.0282 85.0477 67.1007 84.9857 67.1692 84.9174Z" fill="#465A61"/>
<path d="M40.9962 76.6805C28.507 76.6805 18.3825 66.556 18.3825 54.0668C18.3825 41.5776 28.507 31.4531 40.9962 31.4531C53.4854 31.4531 63.6099 41.5776 63.6099 54.0668C63.6099 66.556 53.4854 76.6805 40.9962 76.6805Z" fill="#7A8C98"/>
<path d="M40.9962 70.0369C32.1761 70.0369 25.0261 62.8869 25.0261 54.0668C25.0261 45.2467 32.1761 38.0967 40.9962 38.0967C49.8162 38.0967 56.9663 45.2467 56.9663 54.0668C56.9663 62.8869 49.8162 70.0369 40.9962 70.0369Z" fill="#99E6FC"/>
<path d="M47.9559 54.067C47.9559 46.8119 43.1165 40.6908 36.4909 38.7455C37.9539 38.3152 39.471 38.0967 40.9959 38.0967C49.8161 38.0967 56.9661 45.2467 56.9661 54.0668C56.9661 62.8869 49.8161 70.0369 40.9959 70.0369C39.471 70.037 37.9539 69.8185 36.4909 69.3881C43.1165 67.443 47.9559 61.3219 47.9559 54.067Z" fill="#62DBFB"/>
<path d="M40.9962 71.5019C50.6099 71.5019 58.4312 63.6807 58.4312 54.0668C58.4312 44.4531 50.6099 36.6318 40.9962 36.6318C31.3825 36.6318 23.5612 44.4531 23.5612 54.0668C23.5612 63.6807 31.3825 71.5019 40.9962 71.5019ZM40.9962 39.5617C48.9944 39.5617 55.5015 46.0686 55.5015 54.067C55.5015 62.0654 48.9944 68.5725 40.9962 68.5725C32.9979 68.5725 26.4909 62.0654 26.4909 54.067C26.4909 46.0686 32.9979 39.5617 40.9962 39.5617Z" fill="#596C76"/>
<path d="M17.1823 24.3721H28.4056C28.5377 24.3721 28.6685 24.3461 28.7906 24.2955C28.9127 24.245 29.0236 24.1709 29.117 24.0775C29.2104 23.984 29.2845 23.8731 29.3351 23.751C29.3856 23.629 29.4116 23.4981 29.4116 23.366V12.1428C29.4116 12.0106 29.3856 11.8798 29.3351 11.7577C29.2845 11.6357 29.2104 11.5248 29.117 11.4313C29.0236 11.3379 28.9127 11.2638 28.7906 11.2132C28.6685 11.1627 28.5377 11.1367 28.4056 11.1367H17.1823C17.0502 11.1367 16.9194 11.1627 16.7973 11.2132C16.6752 11.2638 16.5643 11.3379 16.4709 11.4313C16.3774 11.5248 16.3033 11.6357 16.2528 11.7577C16.2022 11.8798 16.1762 12.0106 16.1763 12.1428V23.366C16.1764 23.6328 16.2824 23.8886 16.471 24.0773C16.6597 24.2659 16.9155 24.372 17.1823 24.3721Z" fill="#00C27A"/>
<path d="M23.1951 23.366V12.1428C23.1951 12.0106 23.1691 11.8798 23.1185 11.7577C23.068 11.6357 22.9939 11.5248 22.9005 11.4313C22.807 11.3379 22.6961 11.2638 22.574 11.2132C22.452 11.1627 22.3211 11.1367 22.189 11.1367H28.4058C28.5379 11.1367 28.6688 11.1627 28.7908 11.2132C28.9129 11.2638 29.0238 11.3379 29.1173 11.4313C29.2107 11.5248 29.2848 11.6357 29.3353 11.7577C29.3859 11.8798 29.4119 12.0106 29.4119 12.1428V23.366C29.4119 23.4981 29.3859 23.629 29.3353 23.751C29.2848 23.8731 29.2107 23.984 29.1173 24.0775C29.0238 24.1709 28.9129 24.245 28.7908 24.2955C28.6688 24.3461 28.5379 24.3721 28.4058 24.3721H22.189C22.3211 24.3721 22.452 24.3461 22.574 24.2955C22.6961 24.245 22.807 24.1709 22.9005 24.0775C22.9939 23.984 23.068 23.8731 23.1185 23.751C23.1691 23.629 23.1951 23.4981 23.1951 23.366Z" fill="#09A755"/>
<path d="M87.7707 56.7256H98.9939C99.1261 56.7256 99.2569 56.6996 99.379 56.6491C99.501 56.5985 99.612 56.5244 99.7054 56.431C99.7988 56.3375 99.8729 56.2266 99.9235 56.1046C99.974 55.9825 100 55.8517 100 55.7195V44.4963C100 44.3642 99.974 44.2333 99.9235 44.1113C99.8729 43.9892 99.7988 43.8783 99.7054 43.7848C99.612 43.6914 99.501 43.6173 99.379 43.5668C99.2569 43.5162 99.1261 43.4902 98.9939 43.4902H87.7707C87.6386 43.4902 87.5077 43.5162 87.3857 43.5668C87.2636 43.6173 87.1527 43.6914 87.0593 43.7848C86.9658 43.8783 86.8917 43.9892 86.8412 44.1113C86.7906 44.2333 86.7646 44.3642 86.7646 44.4963V55.7195C86.7646 55.9864 86.8706 56.2422 87.0593 56.4309C87.248 56.6196 87.5039 56.7256 87.7707 56.7256Z" fill="#01D0FB"/>
<path d="M93.8188 55.7195V44.4963C93.8188 44.3642 93.7928 44.2333 93.7422 44.1113C93.6917 43.9892 93.6176 43.8783 93.5241 43.7848C93.4307 43.6914 93.3198 43.6173 93.1977 43.5668C93.0757 43.5162 92.9448 43.4902 92.8127 43.4902H98.9939C99.1261 43.4902 99.2569 43.5162 99.379 43.5668C99.501 43.6173 99.612 43.6914 99.7054 43.7848C99.7988 43.8783 99.8729 43.9892 99.9235 44.1113C99.974 44.2333 100 44.3642 100 44.4963V55.7195C100 55.8517 99.974 55.9825 99.9235 56.1046C99.8729 56.2266 99.7988 56.3375 99.7054 56.431C99.612 56.5244 99.501 56.5985 99.379 56.6491C99.2569 56.6996 99.1261 56.7256 98.9939 56.7256H92.8127C93.0795 56.7256 93.3354 56.6196 93.5241 56.4309C93.7128 56.2422 93.8188 55.9864 93.8188 55.7195Z" fill="#01C0FA"/>
<path d="M1.00605 44.7148H12.2293C12.3614 44.7149 12.4923 44.6889 12.6143 44.6383C12.7364 44.5878 12.8473 44.5137 12.9407 44.4202C13.0342 44.3268 13.1083 44.2159 13.1588 44.0938C13.2094 43.9718 13.2354 43.8409 13.2354 43.7088V32.4855C13.2354 32.3534 13.2094 32.2226 13.1588 32.1005C13.1083 31.9784 13.0342 31.8675 12.9407 31.7741C12.8473 31.6807 12.7364 31.6066 12.6143 31.556C12.4923 31.5055 12.3614 31.4795 12.2293 31.4795H1.00605C0.873928 31.4795 0.743095 31.5055 0.621024 31.556C0.498952 31.6066 0.388031 31.6807 0.294605 31.7741C0.20118 31.8675 0.127073 31.9784 0.0765238 32.1005C0.0259733 32.2226 -2.86102e-05 32.3534 -2.86102e-06 32.4855V43.7088C-2.86102e-05 43.8409 0.0259733 43.9718 0.0765238 44.0938C0.127073 44.2159 0.20118 44.3268 0.294605 44.4202C0.388031 44.5137 0.498952 44.5878 0.621024 44.6383C0.743095 44.6889 0.873928 44.7149 1.00605 44.7148Z" fill="#FE646F"/>
<path d="M7.09843 43.7088V32.4855C7.09846 32.3534 7.07246 32.2226 7.02191 32.1005C6.97136 31.9784 6.89725 31.8675 6.80383 31.7741C6.7104 31.6807 6.59948 31.6066 6.47741 31.556C6.35534 31.5055 6.2245 31.4795 6.09238 31.4795H12.2293C12.3614 31.4795 12.4923 31.5055 12.6143 31.556C12.7364 31.6066 12.8473 31.6807 12.9407 31.7741C13.0342 31.8675 13.1083 31.9784 13.1588 32.1005C13.2094 32.2226 13.2354 32.3534 13.2354 32.4855V43.7088C13.2354 43.8409 13.2094 43.9718 13.1588 44.0938C13.1083 44.2159 13.0342 44.3268 12.9407 44.4202C12.8473 44.5137 12.7364 44.5878 12.6143 44.6383C12.4923 44.6889 12.3614 44.7149 12.2293 44.7148H6.09238C6.2245 44.7149 6.35534 44.6889 6.47741 44.6383C6.59948 44.5878 6.7104 44.5137 6.80383 44.4202C6.89725 44.3268 6.97136 44.2159 7.02191 44.0938C7.07246 43.9718 7.09846 43.8409 7.09843 43.7088Z" fill="#FD4755"/>
</svg>
