<svg width="32" height="32" viewBox="0 0 32 32" fill="none" xmlns="http://www.w3.org/2000/svg">
<path d="M13.7334 10.5L20.8167 25.5H22.4999C22.6325 25.5 22.7597 25.5527 22.8535 25.6464C22.9472 25.7402 22.9999 25.8674 22.9999 26V27.5H26.2108L18.1831 10.5H13.7334Z" fill="#999999"/>
<path d="M28.0479 26.2136L19.6832 8.50013H15.5914L15.3057 9.50013H18.5C18.5948 9.50013 18.6876 9.52707 18.7676 9.57779C18.8477 9.62851 18.9117 9.70094 18.9521 9.78663L27.3168 27.5001H30V26.5001H28.5C28.4052 26.5001 28.3124 26.4732 28.2324 26.4225C28.1523 26.3718 28.0883 26.2993 28.0479 26.2136ZM11.936 6.40407C11.9922 6.20743 12.0076 6.00137 11.9812 5.79857C11.9548 5.59576 11.8873 5.40049 11.7827 5.22476C11.6781 5.04902 11.5386 4.89653 11.3729 4.77666C11.2072 4.65679 11.0188 4.57206 10.8191 4.5277L10.2144 4.39332C9.84347 4.31199 9.45553 4.37391 9.12839 4.56667C8.80124 4.75943 8.55908 5.06878 8.4505 5.43263L7.83969 7.50013H11.6229L11.936 6.40407ZM19.936 6.40401C19.9922 6.20737 20.0075 6.00132 19.9812 5.79852C19.9548 5.59573 19.8872 5.40046 19.7826 5.22473C19.678 5.04901 19.5386 4.89652 19.3729 4.77665C19.2072 4.65679 19.0188 4.57206 18.8191 4.5277L18.2308 4.39701C17.8576 4.31436 17.4669 4.3772 17.1385 4.57271C16.81 4.76822 16.5685 5.08167 16.4632 5.44913L15.8772 7.50013H19.6228L19.936 6.40401ZM20.5 26.5001C20.4052 26.5001 20.3124 26.4732 20.2324 26.4225C20.1523 26.3718 20.0883 26.2993 20.0479 26.2136L11.6832 8.50013H7.5L2 27.5001H9.5L12.8106 16.0639L12.1906 14.7508L11.6 13.5001H7.05263L7.34212 12.5001H11.1276L10.1832 10.5001H7.92106L8.2105 9.50013H10.5C10.5948 9.50013 10.6876 9.52707 10.7676 9.57779C10.8477 9.62851 10.9117 9.70094 10.9521 9.78663L19.3168 27.5001H22V26.5001H20.5ZM9.07894 25.5001H3.57894L3.86875 24.5001H9.36875L9.07894 25.5001ZM9.94738 22.5001H4.44737L4.73688 21.5001H10.2369L9.94738 22.5001ZM10.8161 19.5001H5.31612L5.60556 18.5001H11.1056L10.8161 19.5001ZM11.974 15.5001L11.6846 16.5001H6.18456L6.47406 15.5001H11.974Z" fill="#999999"/>
</svg>
