<svg width="32" height="32" viewBox="0 0 32 32" fill="none" xmlns="http://www.w3.org/2000/svg">
<path fill-rule="evenodd" clip-rule="evenodd" d="M10.0008 1.00036C7.51583 1.00036 5.50097 3.0149 5.50097 5.50031V17.5001C5.50097 19.9851 7.51583 22 10.0008 22H22.0008C24.4858 22 26.5006 19.9851 26.5006 17.5001V5.49995C26.5006 3.0149 24.4858 1 22.0008 1L10.0008 1.00036ZM7.00104 5.50031V13.0001H15.2509V5.49995L7.00104 5.50031ZM25.0005 13.0001H16.7507V5.49995H25.0005V13.0001ZM10.0008 16C9.80192 15.9969 9.60437 16.0334 9.41969 16.1074C9.23501 16.1814 9.0669 16.2914 8.92514 16.431C8.78337 16.5705 8.67079 16.7369 8.59395 16.9205C8.5171 17.104 8.47753 17.3009 8.47753 17.4999C8.47753 17.6988 8.5171 17.8958 8.59395 18.0793C8.67079 18.2628 8.78337 18.4292 8.92514 18.5688C9.0669 18.7084 9.23501 18.8184 9.41969 18.8924C9.60437 18.9664 9.80192 19.0029 10.0008 18.9998C10.3946 18.9937 10.7702 18.833 11.0465 18.5524C11.3228 18.2717 11.4777 17.8937 11.4777 17.4999C11.4777 17.1061 11.3228 16.728 11.0465 16.4474C10.7702 16.1668 10.3946 16.0061 10.0008 16ZM20.5007 17.5001C20.4976 17.3011 20.5341 17.1036 20.6081 16.9189C20.6821 16.7342 20.7921 16.5661 20.9317 16.4243C21.0713 16.2826 21.2376 16.17 21.4212 16.0931C21.6047 16.0163 21.8016 15.9767 22.0006 15.9767C22.1995 15.9767 22.3965 16.0163 22.58 16.0931C22.7635 16.17 22.9299 16.2826 23.0695 16.4243C23.2091 16.5661 23.319 16.7342 23.393 16.9189C23.467 17.1036 23.5036 17.3011 23.5005 17.5001C23.4944 17.8938 23.3337 18.2694 23.053 18.5457C22.7724 18.8221 22.3944 18.9769 22.0006 18.9769C21.6067 18.9769 21.2287 18.8221 20.9481 18.5457C20.6675 18.2694 20.5068 17.8938 20.5007 17.5001ZM9.36762 22.7499H22.634L27.8538 29.8036C27.9722 29.9636 28.0221 30.1639 27.9927 30.3607C27.9633 30.5575 27.857 30.7345 27.6971 30.8528C27.5371 30.9712 27.3368 31.0212 27.14 30.9918C26.9432 30.9624 26.7662 30.856 26.6479 30.6961L24.0977 27.2498H7.9039L5.35409 30.6961C5.23575 30.856 5.05873 30.9624 4.86196 30.9918C4.6652 31.0212 4.46482 30.9712 4.3049 30.8528C4.14498 30.7345 4.03862 30.5575 4.00922 30.3607C3.97982 30.1639 4.02978 29.9636 4.14812 29.8036L9.36762 22.7499ZM9.01375 25.7501H22.9882L21.8784 24.25H10.1236L9.01375 25.7501Z" fill="#999999"/>
</svg>
