<svg width="32" height="32" viewBox="0 0 32 32" fill="none" xmlns="http://www.w3.org/2000/svg">
<path d="M15.2501 13.6555L13.5751 15.161L12.5701 14.041C12.0101 14.351 11.3851 14.521 10.7501 14.546C10.1924 14.5747 9.63488 14.4857 9.11376 14.285C8.59263 14.0843 8.11951 13.7763 7.72507 13.381L4.22007 9.87605C3.53507 9.19105 4.59507 8.13105 5.28007 8.81605L8.75007 12.286C9.54507 13.086 10.7851 11.846 9.98507 11.0505L6.52007 7.58105C5.83507 6.89605 6.89507 5.83605 7.58007 6.52105L11.0501 9.98605C11.8451 10.7865 13.0851 9.54605 12.2851 8.75105L8.81507 5.28105C8.13007 4.59555 9.19507 3.53555 9.87507 4.22055L13.3801 7.72555C13.7753 8.12005 14.0832 8.59318 14.2839 9.11429C14.4846 9.6354 14.5736 10.1929 14.5451 10.7505C14.521 11.3883 14.3481 12.0116 14.0401 12.5705L15.2501 13.6555Z" fill="#999999"/>
<path d="M27.075 4.92533C28.565 6.42033 28.02 8.89083 27.145 10.5453C26.6 11.5503 25.875 12.4453 25.015 13.1903C23.51 14.4908 21.24 15.0253 19.43 14.0403L8.29002 26.4403C7.50002 27.2703 5.92002 28.4553 4.68002 27.8658C3.63502 27.3708 4.00502 25.9453 4.43502 25.1553C4.73002 24.6158 5.11502 24.1353 5.56002 23.7103L17.96 12.5703C17.6737 12.0208 17.5021 11.4188 17.4557 10.8008C17.4092 10.1829 17.489 9.56198 17.69 8.97583C18.27 7.16583 19.815 5.73583 21.455 4.85583C23.115 3.97533 25.575 3.44033 27.075 4.92533Z" fill="#999999"/>
<path d="M27.5652 25.1552C27.9952 25.9452 28.3652 27.3707 27.3202 27.8657C26.0802 28.4557 24.5002 27.2707 23.7102 26.4402L16.6702 18.6102L18.5002 16.5752L26.4402 23.7102C26.8852 24.1352 27.2702 24.6152 27.5652 25.1552Z" fill="#999999"/>
</svg>
