<svg width="24" height="25" viewBox="0 0 24 25" fill="none" xmlns="http://www.w3.org/2000/svg">
<g clip-path="url(#clip0_23825_9641)">
<path d="M17.0199 21.7897L13.5399 20.0497C12.5699 19.5697 11.4399 19.5697 10.4699 20.0497L6.98991 21.7897C3.99991 23.2797 0.849913 20.0697 2.40991 17.1197L3.22991 15.5797C3.33991 15.3697 3.51991 15.1997 3.73991 15.0997L16.3799 9.39969C16.8999 9.16969 17.5099 9.37969 17.7699 9.87969L21.5799 17.1197C23.1399 20.0697 19.9999 23.2797 17.0199 21.7897Z" fill="white"/>
<path d="M15.6 8.18953L7.31996 11.9195C6.38996 12.3395 5.44996 11.3395 5.92996 10.4395L8.96996 4.66953C10.26 2.21953 13.76 2.21953 15.05 4.66953L16.12 6.70953C16.4 7.25953 16.16 7.93953 15.6 8.18953Z" fill="white"/>
</g>
<defs>
<clipPath id="clip0_23825_9641">
<rect width="24" height="24" fill="white" transform="translate(0 0.5)"/>
</clipPath>
</defs>
</svg>
