<svg width="33" height="32" viewBox="0 0 33 32" fill="none" xmlns="http://www.w3.org/2000/svg">
<path d="M31.5 21.5858C31.5 20.4251 30.763 19.4448 29.7422 19.0755V9.83984L31.5 9.1047L16.5 3L1.5 9.1047L16.5 15.2095L27.9844 10.5558V19.0755C26.9636 19.4448 26.2266 20.4251 26.2266 21.5858C26.2266 22.6485 26.8453 23.5607 27.7325 23.9918L26.2721 28.4359L27.9389 29L28.8633 26.187L29.7877 29L31.4545 28.4359L29.9941 23.9918C30.8813 23.5608 31.5 22.6486 31.5 21.5858Z" fill="#999999"/>
<path d="M16.5 17.3238L8.5 14V16.4014C8.5 19.0231 11.9392 21 16.5 21C21.0608 21 24.5 19.0231 24.5 16.4014V14L16.5 17.3238Z" fill="#999999"/>
</svg>
