<svg width="32" height="32" viewBox="0 0 32 32" fill="none" xmlns="http://www.w3.org/2000/svg">
<path d="M21.1713 15H2.82873C2.37066 15 2 15.3727 2 15.8333V27.5C2 28.8786 3.11525 30 4.48619 30H19.5138C20.8848 30 22 28.8786 22 27.5V15.8333C22 15.3727 21.6293 15 21.1713 15ZM16.9171 20C16.9171 22.7572 14.6867 25 11.9448 25C9.20282 25 6.97238 22.7572 6.97238 20V19.1667C6.97238 18.7061 7.34304 18.3333 7.80111 18.3333C8.25917 18.3333 8.62983 18.7061 8.62983 19.1667V20C8.62983 21.8384 10.1165 23.3333 11.9448 23.3333C13.773 23.3333 15.2597 21.8384 15.2597 20V19.1667C15.2597 18.7061 15.6303 18.3333 16.0884 18.3333C16.5465 18.3333 16.9171 18.7061 16.9171 19.1667V20Z" fill="#999999"/>
<path d="M29.1758 8.67188H24.9451V6.92188C24.9451 4.20779 22.7269 2 20 2C17.2731 2 15.0549 4.20779 15.0549 6.92188V8.67188H10.8242C10.3686 8.67188 10 9.03877 10 9.49219V13.5938H20.9341C22.2975 13.5938 23.4066 14.6977 23.4066 16.0547V27.5391C23.4066 28.4659 23.0843 29.3124 22.5614 30H27.5275C28.8909 30 30 28.8961 30 27.5391V9.49219C30 9.03877 29.6314 8.67188 29.1758 8.67188ZM23.2967 8.67188H16.7033V6.92188C16.7033 5.11221 18.1818 3.64062 20 3.64062C21.8182 3.64062 23.2967 5.11221 23.2967 6.92188V8.67188Z" fill="#999999"/>
</svg>
