<svg width="23" height="23" viewBox="0 0 23 23" fill="none" xmlns="http://www.w3.org/2000/svg">
<path d="M9.53516 7.29102L14.4536 17.7066H15.6224C15.7145 17.7066 15.8028 17.7432 15.8679 17.8083C15.933 17.8734 15.9696 17.9617 15.9696 18.0538V19.0954H18.1992L12.6249 7.29102H9.53516Z" fill="white"/>
<path d="M19.4757 18.2021L13.6674 5.90229H10.8262L10.6279 6.59666H12.8459C12.9117 6.59666 12.9761 6.61536 13.0317 6.65058C13.0873 6.6858 13.1317 6.7361 13.1598 6.7956L18.968 19.0954H20.8312V18.401H19.7896C19.7238 18.401 19.6594 18.3823 19.6038 18.3471C19.5482 18.3119 19.5038 18.2616 19.4757 18.2021ZM8.28798 4.44683C8.327 4.31029 8.33768 4.16721 8.31937 4.02639C8.30106 3.88556 8.25414 3.74997 8.18151 3.62795C8.10887 3.50592 8.01205 3.40003 7.897 3.3168C7.78194 3.23356 7.65108 3.17473 7.51245 3.14392L7.09253 3.05062C6.83498 2.99414 6.56561 3.03714 6.33845 3.17099C6.11128 3.30484 5.94313 3.51964 5.86774 3.77229L5.4436 5.20791H8.07056L8.28798 4.44683ZM13.843 4.44679C13.882 4.31025 13.8927 4.16717 13.8743 4.02635C13.856 3.88554 13.8091 3.74995 13.7365 3.62793C13.6639 3.50591 13.567 3.40003 13.452 3.31679C13.3369 3.23356 13.2061 3.17473 13.0675 3.14392L12.6589 3.05318C12.3998 2.99579 12.1285 3.03942 11.9004 3.17518C11.6724 3.31094 11.5047 3.52859 11.4315 3.78375L11.0246 5.20791H13.6255L13.843 4.44679ZM14.2346 18.401C14.1688 18.401 14.1044 18.3823 14.0488 18.3471C13.9932 18.3119 13.9488 18.2616 13.9207 18.2021L8.11243 5.90229H5.20773L1.38867 19.0954H6.59648L8.8953 11.1544L8.46479 10.2426L8.05467 9.37416H4.89709L5.09811 8.67979H7.72667L7.07087 7.29103H5.50011L5.70109 6.59666H7.29086C7.35666 6.59666 7.42111 6.61536 7.47669 6.65058C7.53228 6.6858 7.57671 6.7361 7.6048 6.7956L13.413 19.0954H15.2762V18.401H14.2346ZM6.30411 17.7067H2.48505L2.68629 17.0123H6.50535L6.30411 17.7067ZM6.90713 15.6235H3.08807L3.28909 14.9292H7.10815L6.90713 15.6235ZM7.51037 13.5404H3.69131L3.89228 12.846H7.71135L7.51037 13.5404ZM8.31437 10.7629L8.11339 11.4573H4.29433L4.49535 10.7629H8.31437Z" fill="white"/>
</svg>
