<svg width="20" height="20" viewBox="0 0 20 20" fill="none" xmlns="http://www.w3.org/2000/svg">
<rect width="20" height="20" rx="10" fill="#1F4787" fill-opacity="0.1"/>
<g clip-path="url(#clip0_18880_3926)">
<path d="M8.12973 11.7863C9.37326 9.72341 12.7169 7.33803 14.5637 6.0297C14.6139 5.99411 14.6738 5.97458 14.7354 5.97367C14.7969 5.97276 14.8573 5.99051 14.9086 6.0246C14.9482 6.05078 14.9811 6.08582 15.0048 6.12694C15.0285 6.16806 15.0423 6.21413 15.0451 6.26151C15.0479 6.30888 15.0396 6.35625 15.0209 6.39986C15.0022 6.44347 14.9736 6.48213 14.9373 6.51276C12.7219 8.38427 10.0854 10.6233 9.28922 13.0897C9.27518 13.1337 9.25146 13.1741 9.21981 13.2078C9.18815 13.2415 9.14936 13.2677 9.10628 13.2844C8.70236 13.4417 8.08607 13.7585 7.72145 13.979C7.68534 14.001 7.64507 14.0152 7.60319 14.0208C7.56131 14.0265 7.51871 14.0234 7.47808 14.0118C7.43745 14.0001 7.39967 13.9802 7.3671 13.9533C7.33454 13.9264 7.30789 13.893 7.28885 13.8553C6.72398 12.7454 5.81584 11.3761 5.0625 10.7557C5.02969 10.7285 5.00298 10.6947 4.98413 10.6564C4.96527 10.6182 4.9547 10.5764 4.9531 10.5338C4.95149 10.4912 4.95889 10.4487 4.97482 10.4091C4.99074 10.3696 5.01483 10.3338 5.04551 10.3042C6.55091 8.86511 7.66111 10.8359 8.12962 11.7861L8.12973 11.7863Z" fill="#1F4787"/>
</g>
<defs>
<clipPath id="clip0_18880_3926">
<rect width="10.6239" height="10.6239" fill="white" transform="translate(4.68811 4.68799)"/>
</clipPath>
</defs>
</svg>
