<svg width="32" height="32" viewBox="0 0 32 32" fill="none" xmlns="http://www.w3.org/2000/svg">
<path d="M7.5 14.75C6.85721 14.75 6.22886 14.9406 5.6944 15.2977C5.15994 15.6548 4.74338 16.1624 4.49739 16.7563C4.25141 17.3501 4.18705 18.0036 4.31245 18.634C4.43785 19.2645 4.74738 19.8436 5.2019 20.2981C5.65642 20.7526 6.23552 21.0621 6.86596 21.1876C7.4964 21.313 8.14986 21.2486 8.74372 21.0026C9.33758 20.7566 9.84516 20.3401 10.2023 19.8056C10.5594 19.2711 10.75 18.6428 10.75 18C10.749 17.1383 10.4063 16.3123 9.79702 15.703C9.18774 15.0937 8.36166 14.751 7.5 14.75ZM7.5 19.5C7.20333 19.5 6.91332 19.412 6.66665 19.2472C6.41997 19.0824 6.22771 18.8481 6.11418 18.574C6.00065 18.2999 5.97095 17.9983 6.02882 17.7074C6.0867 17.4164 6.22956 17.1491 6.43934 16.9393C6.64912 16.7296 6.91639 16.5867 7.20737 16.5288C7.49834 16.4709 7.79994 16.5007 8.07403 16.6142C8.34812 16.7277 8.58238 16.92 8.74721 17.1666C8.91203 17.4133 9 17.7033 9 18C9 18.3978 8.84197 18.7794 8.56066 19.0607C8.27936 19.342 7.89783 19.5 7.5 19.5ZM25.5 14.75C24.8572 14.75 24.2289 14.9406 23.6944 15.2977C23.1599 15.6548 22.7434 16.1624 22.4974 16.7563C22.2514 17.3501 22.187 18.0036 22.3125 18.634C22.4379 19.2645 22.7474 19.8436 23.2019 20.2981C23.6564 20.7526 24.2355 21.0621 24.866 21.1876C25.4964 21.313 26.1499 21.2486 26.7437 21.0026C27.3376 20.7566 27.8452 20.3401 28.2023 19.8056C28.5594 19.2711 28.75 18.6428 28.75 18C28.749 17.1383 28.4063 16.3123 27.797 15.703C27.1877 15.0937 26.3617 14.751 25.5 14.75ZM25.5 19.5C25.2033 19.5 24.9133 19.412 24.6666 19.2472C24.42 19.0824 24.2277 18.8481 24.1142 18.574C24.0007 18.2999 23.9709 17.9983 24.0288 17.7074C24.0867 17.4164 24.2296 17.1491 24.4393 16.9393C24.6491 16.7296 24.9164 16.5867 25.2074 16.5288C25.4983 16.4709 25.7999 16.5007 26.074 16.6142C26.3481 16.7277 26.5824 16.92 26.7472 17.1666C26.912 17.4133 27 17.7033 27 18C27 18.3978 26.842 18.7794 26.5607 19.0607C26.2794 19.342 25.8978 19.5 25.5 19.5Z" fill="#999999"/>
<path d="M29.8375 12.065L24 11L19.0303 6.87657C18.5378 6.47199 17.9203 6.25057 17.2829 6.25001H9.96125C9.54866 6.24903 9.14118 6.34136 8.76931 6.5201C8.39744 6.69883 8.07079 6.95934 7.81381 7.28213L4.6395 11H2.5C1.90347 11.0007 1.33155 11.2379 0.909741 11.6597C0.487927 12.0816 0.250662 12.6535 0.25 13.25V16C0.250811 16.7291 0.540802 17.4281 1.05635 17.9437C1.5719 18.4592 2.2709 18.7492 3 18.75H3.57156C3.46062 18.1714 3.47886 17.5755 3.62496 17.0048C3.77107 16.434 4.04143 15.9026 4.41674 15.4485C4.79205 14.9944 5.26303 14.6288 5.79603 14.3779C6.32902 14.1269 6.91087 13.9968 7.5 13.9968C8.08913 13.9968 8.67098 14.1269 9.20397 14.3779C9.73697 14.6288 10.208 14.9944 10.5833 15.4485C10.9586 15.9026 11.2289 16.434 11.375 17.0048C11.5211 17.5755 11.5394 18.1714 11.4284 18.75H21.5716C21.4606 18.1714 21.4789 17.5755 21.625 17.0048C21.7711 16.434 22.0414 15.9026 22.4167 15.4485C22.792 14.9944 23.263 14.6288 23.796 14.3779C24.329 14.1269 24.9109 13.9968 25.5 13.9968C26.0891 13.9968 26.671 14.1269 27.204 14.3779C27.737 14.6288 28.208 14.9944 28.5833 15.4485C28.9586 15.9026 29.2289 16.434 29.375 17.0048C29.5211 17.5755 29.5394 18.1714 29.4284 18.75H29.5C30.0965 18.7493 30.6684 18.5121 31.0903 18.0903C31.5121 17.6685 31.7493 17.0965 31.75 16.5V14.2895C31.7527 13.7505 31.5607 13.2287 31.2093 12.82C30.8579 12.4113 30.3708 12.1432 29.8375 12.065ZM11.25 10.25C11.25 10.4489 11.171 10.6397 11.0303 10.7803C10.8897 10.921 10.6989 11 10.5 11H7.20281C7.13111 11 7.0609 10.9795 7.0005 10.9409C6.9401 10.9022 6.89205 10.8471 6.86203 10.782C6.83202 10.7169 6.8213 10.6445 6.83116 10.5735C6.84101 10.5025 6.87102 10.4357 6.91762 10.3813L9.09988 7.82501C9.17033 7.74264 9.2578 7.67651 9.35627 7.6312C9.45474 7.58588 9.56186 7.56245 9.67025 7.56251H10.5C10.6989 7.56251 10.8897 7.64153 11.0303 7.78218C11.171 7.92283 11.25 8.1136 11.25 8.31251V10.25ZM15 13.75H14C13.8011 13.75 13.6103 13.671 13.4697 13.5303C13.329 13.3897 13.25 13.1989 13.25 13C13.25 12.8011 13.329 12.6103 13.4697 12.4697C13.6103 12.329 13.8011 12.25 14 12.25H15C15.1989 12.25 15.3897 12.329 15.5303 12.4697C15.671 12.6103 15.75 12.8011 15.75 13C15.75 13.1989 15.671 13.3897 15.5303 13.5303C15.3897 13.671 15.1989 13.75 15 13.75ZM20.9049 11.0184L13.7483 11.0018C13.5496 11.0013 13.3593 10.9221 13.2191 10.7815C13.0788 10.6409 13 10.4504 13 10.2518V8.31251C13 8.1136 13.079 7.92283 13.2197 7.78218C13.3603 7.64153 13.5511 7.56251 13.75 7.56251H17.3468C17.5153 7.56252 17.679 7.61933 17.8113 7.72376L21.1381 10.3488C21.1994 10.397 21.2441 10.4633 21.266 10.5382C21.2879 10.6131 21.2859 10.693 21.2602 10.7667C21.2346 10.8404 21.1865 10.9043 21.1229 10.9494C21.0592 10.9945 20.983 11.0186 20.9049 11.0184Z" fill="#999999"/>
</svg>
