<svg width="32" height="32" viewBox="0 0 32 32" fill="none" xmlns="http://www.w3.org/2000/svg">
<g clip-path="url(#clip0_23908_9258)">
<path d="M25.4665 15.0742H22.7616C22.5126 15.0742 22.3108 15.2761 22.3108 15.525V18.23C22.3108 18.4789 22.5126 18.6808 22.7616 18.6808H25.4665C25.7155 18.6808 25.9174 18.4789 25.9174 18.23V15.525C25.9174 15.2761 25.7155 15.0742 25.4665 15.0742Z" fill="white"/>
<path d="M25.4665 19.582H22.7616C22.5126 19.582 22.3108 19.7839 22.3108 20.0329V22.7378C22.3108 22.9868 22.5126 23.1886 22.7616 23.1886H25.4665C25.7155 23.1886 25.9174 22.9868 25.9174 22.7378V20.0329C25.9174 19.7839 25.7155 19.582 25.4665 19.582Z" fill="white"/>
<path d="M13.7451 11.9182C13.7451 12.364 13.8773 12.7998 14.125 13.1705C14.3727 13.5412 14.7247 13.8301 15.1366 14.0007C15.5485 14.1713 16.0017 14.2159 16.439 14.129C16.8762 14.042 17.2779 13.8273 17.5931 13.5121C17.9083 13.1968 18.123 12.7952 18.21 12.3579C18.297 11.9207 18.2523 11.4674 18.0817 11.0556C17.9111 10.6437 17.6222 10.2916 17.2515 10.0439C16.8808 9.79626 16.445 9.66406 15.9992 9.66406C15.4014 9.66406 14.8281 9.90155 14.4053 10.3243C13.9826 10.747 13.7451 11.3203 13.7451 11.9182ZM17.3517 11.9182C17.3517 12.1857 17.2724 12.4471 17.1237 12.6695C16.9751 12.892 16.7639 13.0653 16.5168 13.1677C16.2697 13.27 15.9977 13.2968 15.7354 13.2446C15.473 13.1925 15.232 13.0636 15.0429 12.8745C14.8537 12.6854 14.7249 12.4444 14.6727 12.182C14.6206 11.9197 14.6473 11.6477 14.7497 11.4006C14.8521 11.1535 15.0254 10.9422 15.2478 10.7936C15.4702 10.645 15.7317 10.5657 15.9992 10.5657C16.3579 10.5657 16.7019 10.7082 16.9556 10.9618C17.2092 11.2155 17.3517 11.5595 17.3517 11.9182Z" fill="white"/>
<path d="M19.1549 15.0742H12.8434C12.5944 15.0742 12.3926 15.2761 12.3926 15.525V17.3283C12.3926 17.5773 12.5944 17.7791 12.8434 17.7791H19.1549C19.4039 17.7791 19.6057 17.5773 19.6057 17.3283V15.525C19.6057 15.2761 19.4039 15.0742 19.1549 15.0742Z" fill="white"/>
<path d="M9.23704 15.0742H6.53212C6.28314 15.0742 6.0813 15.2761 6.0813 15.525V18.23C6.0813 18.4789 6.28314 18.6808 6.53212 18.6808H9.23704C9.48602 18.6808 9.68786 18.4789 9.68786 18.23V15.525C9.68786 15.2761 9.48602 15.0742 9.23704 15.0742Z" fill="white"/>
<path d="M9.23704 19.582H6.53212C6.28314 19.582 6.0813 19.7839 6.0813 20.0329V22.7378C6.0813 22.9868 6.28314 23.1886 6.53212 23.1886H9.23704C9.48602 23.1886 9.68786 22.9868 9.68786 22.7378V20.0329C9.68786 19.7839 9.48602 19.582 9.23704 19.582Z" fill="white"/>
<path d="M29.0729 26.7954H27.7205V14.1724H29.0729C29.1414 14.1728 29.2091 14.1576 29.2708 14.1279C29.3325 14.0982 29.3866 14.0548 29.4291 14.0011C29.4712 13.9469 29.5005 13.8838 29.5145 13.8166C29.5286 13.7495 29.5271 13.6799 29.5102 13.6134L27.7069 6.40028C27.6828 6.30254 27.6266 6.2157 27.5473 6.15361C27.4681 6.09151 27.3703 6.05773 27.2697 6.05766H16.45V4.7052H18.2532C18.3562 4.7082 18.4571 4.67583 18.5392 4.61349C18.6212 4.55115 18.6794 4.4626 18.7041 4.36257L19.1549 2.55929C19.1718 2.49275 19.1732 2.42324 19.1592 2.35605C19.1451 2.28886 19.1159 2.22577 19.0737 2.17159C19.0299 2.11602 18.9736 2.07155 18.9094 2.04179C18.8451 2.01202 18.7748 1.9978 18.7041 2.00027H15.9991C15.8796 2.00027 15.7649 2.04777 15.6804 2.13232C15.5958 2.21686 15.5483 2.33153 15.5483 2.4511V6.05766H4.72864C4.62566 6.05466 4.52476 6.08702 4.44273 6.14936C4.36071 6.2117 4.30251 6.30025 4.27782 6.40028L2.47454 13.6134C2.45766 13.6799 2.45619 13.7495 2.47025 13.8166C2.48432 13.8838 2.51354 13.9469 2.55569 14.0011C2.59953 14.0567 2.65585 14.1011 2.72007 14.1309C2.78429 14.1607 2.85462 14.1749 2.92536 14.1724H4.27782V26.7954H2.92536C2.8058 26.7954 2.69113 26.8429 2.60659 26.9274C2.52204 27.012 2.47454 27.1266 2.47454 27.2462V29.0495C2.47454 29.1691 2.52204 29.2837 2.60659 29.3683C2.69113 29.4528 2.8058 29.5003 2.92536 29.5003H29.0729C29.1925 29.5003 29.3072 29.4528 29.3917 29.3683C29.4763 29.2837 29.5238 29.1691 29.5238 29.0495V27.2462C29.5238 27.1266 29.4763 27.012 29.3917 26.9274C29.3072 26.8429 29.1925 26.7954 29.0729 26.7954ZM23.2123 11.4675H27.7205V12.3691H23.2123V11.4675ZM21.409 11.4675H22.3106V12.3691H21.409V11.4675ZM10.5893 24.9921H9.68767C9.5681 24.9921 9.45343 25.0396 9.36889 25.1241C9.28434 25.2087 9.23685 25.3234 9.23685 25.4429V26.7954H5.17946V14.1724H10.5893V24.9921ZM10.5893 12.3691H4.27782V11.4134H10.5893V12.3691ZM15.5483 24.9921H13.745V20.4839H15.5483V24.9921ZM18.2532 24.9921H16.45V20.4839H18.2532V24.9921ZM20.5073 13.7216V24.9921H19.1549V20.0331C19.1549 19.9135 19.1074 19.7988 19.0228 19.7143C18.9383 19.6298 18.8236 19.5823 18.7041 19.5823H13.2942C13.1747 19.5823 13.06 19.6298 12.9754 19.7143C12.8909 19.7988 12.8434 19.9135 12.8434 20.0331V24.9921H11.4909V10.0429L15.9991 7.04946L20.5073 10.0429V13.7216ZM26.8188 26.7954H23.2123V25.4429C23.2123 25.3234 23.1648 25.2087 23.0802 25.1241C22.9957 25.0396 22.881 24.9921 22.7614 24.9921H21.409V14.1724H26.8188V26.7954Z" fill="white"/>
</g>
<defs>
<clipPath id="clip0_23908_9258">
<rect width="32" height="32" fill="white"/>
</clipPath>
</defs>
</svg>
