<svg width="32" height="32" viewBox="0 0 32 32" fill="none" xmlns="http://www.w3.org/2000/svg">
<path d="M14.1811 18.4944C14.9296 14.1198 11.3608 12.2777 7.44665 13.7744C3.53248 15.2709 3.93549 18.7247 4.10835 20.9119C4.28096 23.0993 8.71302 28.5099 8.71302 28.5099C9.74912 29.6611 11.8214 30.9273 13.8359 29.4885C15.8505 28.0496 15.3323 26.6103 14.8146 24.9987C14.2963 23.387 13.433 22.8689 14.1811 18.4944Z" fill="black" fill-opacity="0.4"/>
<path d="M11.5046 12.2203C12.6968 12.2203 13.6633 11.009 13.6633 9.51491C13.6633 8.02079 12.6968 6.80957 11.5046 6.80957C10.3124 6.80957 9.34595 8.02079 9.34595 9.51491C9.34595 11.009 10.3124 12.2203 11.5046 12.2203Z" fill="black" fill-opacity="0.4"/>
<path d="M5.68043 11.2664C5.98788 12.2053 6.84454 12.7676 7.59383 12.5223C8.34311 12.277 8.7013 11.3169 8.39385 10.3779C8.0864 9.43893 7.22974 8.87662 6.48045 9.12196C5.73116 9.3673 5.37298 10.3274 5.68043 11.2664Z" fill="black" fill-opacity="0.4"/>
<path d="M4.8961 13.8431C5.44311 13.5806 5.61994 12.8126 5.29149 12.1272C4.96272 11.4416 4.2529 11.0986 3.70615 11.3608C3.1594 11.6231 2.98237 12.3913 3.31082 13.0765C3.63927 13.7621 4.34909 14.1051 4.8961 13.8431ZM2.11012 13.9561C1.63869 14.182 1.48586 14.8443 1.76925 15.435C2.05232 16.026 2.66436 16.3217 3.13584 16.096C3.6072 15.8697 3.75978 15.2075 3.47671 14.6167C3.19338 14.0258 2.58148 13.7298 2.11012 13.9561ZM1.10007 16.672C0.747684 16.9918 0.786788 17.609 1.18743 18.0505C1.58826 18.4923 2.19863 18.5909 2.5512 18.2714C2.90346 17.9516 2.86416 17.3345 2.46359 16.8928C2.06276 16.4514 1.45245 16.3523 1.10007 16.672ZM23.7726 7.07369C19.5966 6.72553 16.6813 9.48803 18.6178 13.4815C20.5538 17.475 19.8687 18.2129 19.8197 19.9051C19.7707 21.5972 19.6736 23.1237 22.0089 23.9451C24.3444 24.7666 25.9825 22.9737 26.6571 21.5796C26.6571 21.5796 29.4084 15.1492 28.9655 13.0002C28.5227 10.8514 27.9487 7.42185 23.7726 7.07369ZM19.4425 6.71042C20.5874 6.37865 21.1786 4.94614 20.7628 3.51132C20.347 2.07631 19.0817 1.18185 17.9367 1.51337C16.7917 1.84521 16.2004 3.27766 16.6162 4.71273C17.0322 6.14761 18.2974 7.0422 19.4425 6.71042ZM23.2898 5.90812C24.0777 5.935 24.7439 5.15638 24.7776 4.16899C24.8112 3.18153 24.2 2.35919 23.4123 2.33219C22.6244 2.30531 21.9583 3.08393 21.9245 4.07132C21.8907 5.05891 22.5021 5.88124 23.2898 5.90812ZM26.2416 6.42959C26.8398 6.52911 27.4261 6.00214 27.5508 5.25225C27.6758 4.50262 27.2917 3.81398 26.6937 3.71427C26.0953 3.61462 25.5093 4.14172 25.3844 4.89174C25.2596 5.64137 25.6432 6.32982 26.2416 6.42959ZM28.5593 8.10364C29.075 8.18927 29.5805 7.73487 29.6879 7.08847C29.7955 6.44227 29.4647 5.8486 28.949 5.76297C28.4331 5.67676 27.9278 6.13129 27.8202 6.77769C27.7127 7.42403 28.0434 8.01763 28.5593 8.10364ZM30.675 8.09052C30.2475 7.88143 29.6889 8.14639 29.4268 8.68201C29.165 9.21763 29.2988 9.82134 29.7264 10.0303C30.154 10.2391 30.7127 9.97462 30.9748 9.43875C31.2365 8.90319 31.1022 8.29955 30.675 8.09052Z" fill="black" fill-opacity="0.4"/>
</svg>
